2026-01-04T11:24:07.150Z b_HQy1FDG9-:[Step S01] [2.58.02] Server relay initialising job
2026-01-04T11:24:07.150Z b_HQy1FDG9-:Server: linux_x64_docker_true
2026-01-04T11:24:07.150Z b_HQy1FDG9-:Server relay adding file to staged files
2026-01-04T11:24:07.151Z b_HQy1FDG9-:Server relay sending job to Node relay: MyInternalNode
2026-01-04T11:24:07.151Z b_HQy1FDG9-:Node[MyInternalNode]:[Step N01] [2.58.02] Node relay received job
2026-01-04T11:24:07.151Z b_HQy1FDG9-:Node[MyInternalNode]:{"nodeName":"MyInternalNode","serverURL":"http://0.0.0.0:8266","serverIP":"0.0.0.0","serverPort":"8266","handbrakePath":"","ffmpegPath":"","mkvpropeditPath":"","pathTranslators":[{"server":"","node":""}],"nodeType":"mapped","unmappedNodeCache":"/app/unmappedNodeCache","logLevel":"INFO","priority":-1,"platform_arch_isdocker":"linux_x64_docker_true","processPid":664,"cronPluginUpdate":"","apiKey":"","maxLogSizeMB":"10","pollInterval":2000,"startPaused":false,"nodeID":"-2RaUzM4Y","seededWorkerLimits":{},"nodeRegisteredCount":1}
2026-01-04T11:24:07.152Z b_HQy1FDG9-:Node[MyInternalNode]:Node relay sending job to worker:fair-flies
2026-01-04T11:24:07.153Z b_HQy1FDG9-:Node[MyInternalNode]:Worker[fair-flies]:[Step W01] Received file, original: "/media/tv/Fallout/Season 1/Fallout.2024.S01E01.1080p.BDRip.DDP7.1.x265.-.Vialle.mkv"
2026-01-04T11:24:07.153Z b_HQy1FDG9-:Node[MyInternalNode]:Worker[fair-flies]:{"workerType":"transcodegpu"}
2026-01-04T11:24:07.153Z b_HQy1FDG9-:Node[MyInternalNode]:Worker[fair-flies]:{"ffmpegPath":"tdarr-ffmpeg"}
2026-01-04T11:24:07.154Z b_HQy1FDG9-:Node[MyInternalNode]:Worker[fair-flies]:{"handbrakePath":"HandBrakeCLI"}
2026-01-04T11:24:07.154Z b_HQy1FDG9-:Node[MyInternalNode]:Worker[fair-flies]:{"mkvpropeditPath":"mkvpropedit"}
2026-01-04T11:24:07.155Z b_HQy1FDG9-:Node[MyInternalNode]:Worker[fair-flies]:{"gpuSelect":"-"}
2026-01-04T11:24:07.156Z b_HQy1FDG9-:Node[MyInternalNode]:Worker[fair-flies]:{"allowGpuDoCpu":false}
2026-01-04T11:24:07.156Z b_HQy1FDG9-:Node[MyInternalNode]:Worker[fair-flies]:{"thoroughHealthCheckCpuExtraInputArgs":""}
2026-01-04T11:24:07.157Z b_HQy1FDG9-:Node[MyInternalNode]:Worker[fair-flies]:{"thoroughHealthCheckGpuExtraInputArgs":""}
2026-01-04T11:24:07.157Z b_HQy1FDG9-:Node[MyInternalNode]:Worker[fair-flies]:{"thoroughHealthCheckCpuExtraArgs":""}
2026-01-04T11:24:07.157Z b_HQy1FDG9-:Node[MyInternalNode]:Worker[fair-flies]:{"thoroughHealthCheckGpuExtraArgs":""}
2026-01-04T11:24:07.158Z b_HQy1FDG9-:Node[MyInternalNode]:Worker[fair-flies]:{"logFullCliOutput":false}
2026-01-04T11:24:07.159Z b_HQy1FDG9-:Node[MyInternalNode]:Worker[fair-flies]:{"runMkvpropedit":false}
2026-01-04T11:24:07.159Z b_HQy1FDG9-:Node[MyInternalNode]:Worker[fair-flies]:{"dontCleanWorkerCacheFolder":false}
2026-01-04T11:24:07.160Z b_HQy1FDG9-:Node[MyInternalNode]:Worker[fair-flies]:Path translating objects
2026-01-04T11:24:07.160Z b_HQy1FDG9-:Node[MyInternalNode]:Worker[fair-flies]:Running path translator tests
2026-01-04T11:24:07.161Z b_HQy1FDG9-:Node[MyInternalNode]:Worker[fair-flies]:Path translator tests passed
2026-01-04T11:24:07.161Z b_HQy1FDG9-:Node[MyInternalNode]:Worker[fair-flies]:{"librarySettings":{"_id":"KU0woozLb","priority":1,"name":"TV Shows","folder":"/media/tv","foldersToIgnore":"","foldersToIgnoreCaseInsensitive":false,"folderWatchScanInterval":30,"scannerThreadCount":2,"cache":"/tmp","output":".","folderToFolderConversion":false,"folderToFolderConversionDeleteSource":false,"folderToFolderRecordHistory":true,"copyIfConditionsMet":false,"container":".mkv","containerFilter":"mkv,mp4,mov,m4v,mpg,mpeg,avi,flv,webm,wmv,vob,evo,iso,m2ts,ts","createdAt":1675837380368,"folderWatching":false,"useFsEvents":false,"scheduledScanFindNew":false,"processLibrary":true,"processTranscodes":true,"processHealthChecks":true,"scanOnStart":false,"exifToolScan":true,"mediaInfoScan":true,"ffprobeShowData":false,"isDirectoryLibrary":false,"closedCaptionScan":false,"scanButtons":false,"scanFound":"Files found:0","navItemSelected":"navSourceFolder","pluginIDs":[{"_id":"plugin1","id":"Tdarr_Plugin_MC93_MigzImageRemoval","checked":true,"source":"Community","priority":0,"InputsDB":{}},{"_id":"plugin2","id":"Tdarr_Plugin_lmg1_Reorder_Streams","checked":true,"source":"Community","priority":1,"InputsDB":{}},{"_id":"plugin4","id":"Tdarr_Plugin_MC93_Migz1FFMPEG","checked":true,"source":"Community","priority":2,"InputsDB":{}},{"_id":"plugin5","id":"Tdarr_Plugin_a9he_New_file_size_check","checked":true,"source":"Community","priority":3,"InputsDB":{}}],"pluginCommunity":true,"handbrake":true,"ffmpeg":false,"handbrakescan":true,"ffmpegscan":false,"preset":"-Z \"Very Fast 1080p30\"","decisionMaker":{"settingsPlugin":true,"settingsFlows":false,"settingsVideo":false,"videoExcludeSwitch":true,"video_codec_names_exclude":[{"codec":"hevc","checked":false},{"codec":"h264","checked":true}],"video_size_range_include":{"min":0,"max":100000},"video_height_range_include":{"min":0,"max":3000},"video_width_range_include":{"min":0,"max":4000},"settingsAudio":false,"audioExcludeSwitch":true,"audio_codec_names_exclude":[{"codec":"mp3","checked":true},{"codec":"aac","checked":false}],"audio_size_range_include":{"min":0,"max":10}},"schedule":[{"_id":"Sun:00-01","checked":true},{"_id":"Sun:01-02","checked":true},{"_id":"Sun:02-03","checked":true},{"_id":"Sun:03-04","checked":true},{"_id":"Sun:04-05","checked":true},{"_id":"Sun:05-06","checked":true},{"_id":"Sun:06-07","checked":true},{"_id":"Sun:07-08","checked":true},{"_id":"Sun:08-09","checked":true},{"_id":"Sun:09-10","checked":true},{"_id":"Sun:10-11","checked":true},{"_id":"Sun:11-12","checked":true},{"_id":"Sun:12-13","checked":true},{"_id":"Sun:13-14","checked":true},{"_id":"Sun:14-15","checked":true},{"_id":"Sun:15-16","checked":true},{"_id":"Sun:16-17","checked":true},{"_id":"Sun:17-18","checked":true},{"_id":"Sun:18-19","checked":true},{"_id":"Sun:19-20","checked":true},{"_id":"Sun:20-21","checked":true},{"_id":"Sun:21-22","checked":true},{"_id":"Sun:22-23","checked":true},{"_id":"Sun:23-00","checked":true},{"_id":"Mon:00-01","checked":true},{"_id":"Mon:01-02","checked":true},{"_id":"Mon:02-03","checked":true},{"_id":"Mon:03-04","checked":true},{"_id":"Mon:04-05","checked":true},{"_id":"Mon:05-06","checked":true},{"_id":"Mon:06-07","checked":true},{"_id":"Mon:07-08","checked":true},{"_id":"Mon:08-09","checked":true},{"_id":"Mon:09-10","checked":true},{"_id":"Mon:10-11","checked":true},{"_id":"Mon:11-12","checked":true},{"_id":"Mon:12-13","checked":true},{"_id":"Mon:13-14","checked":true},{"_id":"Mon:14-15","checked":true},{"_id":"Mon:15-16","checked":true},{"_id":"Mon:16-17","checked":true},{"_id":"Mon:17-18","checked":true},{"_id":"Mon:18-19","checked":true},{"_id":"Mon:19-20","checked":true},{"_id":"Mon:20-21","checked":true},{"_id":"Mon:21-22","checked":true},{"_id":"Mon:22-23","checked":true},{"_id":"Mon:23-00","checked":true},{"_id":"Tue:00-01","checked":true},{"_id":"Tue:01-02","checked":true},{"_id":"Tue:02-03","checked":true},{"_id":"Tue:03-04","checked":true},{"_id":"Tue:04-05","checked":true},{"_id":"Tue:05-06","checked":true},{"_id":"Tue:06-07","checked":true},{"_id":"Tue:07-08","checked":true},{"_id":"Tue:08-09","checked":true},{"_id":"Tue:09-10","checked":true},{"_id":"Tue:10-11","checked":true},{"_id":"Tue:11-12","checked":true},{"_id":"Tue:12-13","checked":true},{"_id":"Tue:13-14","checked":true},{"_id":"Tue:14-15","checked":true},{"_id":"Tue:15-16","checked":true},{"_id":"Tue:16-17","checked":true},{"_id":"Tue:17-18","checked":true},{"_id":"Tue:18-19","checked":true},{"_id":"Tue:19-20","checked":true},{"_id":"Tue:20-21","checked":true},{"_id":"Tue:21-22","checked":true},{"_id":"Tue:22-23","checked":true},{"_id":"Tue:23-00","checked":true},{"_id":"Wed:00-01","checked":true},{"_id":"Wed:01-02","checked":true},{"_id":"Wed:02-03","checked":true},{"_id":"Wed:03-04","checked":true},{"_id":"Wed:04-05","checked":true},{"_id":"Wed:05-06","checked":true},{"_id":"Wed:06-07","checked":true},{"_id":"Wed:07-08","checked":true},{"_id":"Wed:08-09","checked":true},{"_id":"Wed:09-10","checked":true},{"_id":"Wed:10-11","checked":true},{"_id":"Wed:11-12","checked":true},{"_id":"Wed:12-13","checked":true},{"_id":"Wed:13-14","checked":true},{"_id":"Wed:14-15","checked":true},{"_id":"Wed:15-16","checked":true},{"_id":"Wed:16-17","checked":true},{"_id":"Wed:17-18","checked":true},{"_id":"Wed:18-19","checked":true},{"_id":"Wed:19-20","checked":true},{"_id":"Wed:20-21","checked":true},{"_id":"Wed:21-22","checked":true},{"_id":"Wed:22-23","checked":true},{"_id":"Wed:23-00","checked":true},{"_id":"Thur:00-01","checked":true},{"_id":"Thur:01-02","checked":true},{"_id":"Thur:02-03","checked":true},{"_id":"Thur:03-04","checked":true},{"_id":"Thur:04-05","checked":true},{"_id":"Thur:05-06","checked":true},{"_id":"Thur:06-07","checked":true},{"_id":"Thur:07-08","checked":true},{"_id":"Thur:08-09","checked":true},{"_id":"Thur:09-10","checked":true},{"_id":"Thur:10-11","checked":true},{"_id":"Thur:11-12","checked":true},{"_id":"Thur:12-13","checked":true},{"_id":"Thur:13-14","checked":true},{"_id":"Thur:14-15","checked":true},{"_id":"Thur:15-16","checked":true},{"_id":"Thur:16-17","checked":true},{"_id":"Thur:17-18","checked":true},{"_id":"Thur:18-19","checked":true},{"_id":"Thur:19-20","checked":true},{"_id":"Thur:20-21","checked":true},{"_id":"Thur:21-22","checked":true},{"_id":"Thur:22-23","checked":true},{"_id":"Thur:23-00","checked":true},{"_id":"Fri:00-01","checked":true},{"_id":"Fri:01-02","checked":true},{"_id":"Fri:02-03","checked":true},{"_id":"Fri:03-04","checked":true},{"_id":"Fri:04-05","checked":true},{"_id":"Fri:05-06","checked":true},{"_id":"Fri:06-07","checked":true},{"_id":"Fri:07-08","checked":true},{"_id":"Fri:08-09","checked":true},{"_id":"Fri:09-10","checked":true},{"_id":"Fri:10-11","checked":true},{"_id":"Fri:11-12","checked":true},{"_id":"Fri:12-13","checked":true},{"_id":"Fri:13-14","checked":true},{"_id":"Fri:14-15","checked":true},{"_id":"Fri:15-16","checked":true},{"_id":"Fri:16-17","checked":true},{"_id":"Fri:17-18","checked":true},{"_id":"Fri:18-19","checked":true},{"_id":"Fri:19-20","checked":true},{"_id":"Fri:20-21","checked":true},{"_id":"Fri:21-22","checked":true},{"_id":"Fri:22-23","checked":true},{"_id":"Fri:23-00","checked":true},{"_id":"Sat:00-01","checked":true},{"_id":"Sat:01-02","checked":true},{"_id":"Sat:02-03","checked":true},{"_id":"Sat:03-04","checked":true},{"_id":"Sat:04-05","checked":true},{"_id":"Sat:05-06","checked":true},{"_id":"Sat:06-07","checked":true},{"_id":"Sat:07-08","checked":true},{"_id":"Sat:08-09","checked":true},{"_id":"Sat:09-10","checked":true},{"_id":"Sat:10-11","checked":true},{"_id":"Sat:11-12","checked":true},{"_id":"Sat:12-13","checked":true},{"_id":"Sat:13-14","checked":true},{"_id":"Sat:14-15","checked":true},{"_id":"Sat:15-16","checked":true},{"_id":"Sat:16-17","checked":true},{"_id":"Sat:17-18","checked":true},{"_id":"Sat:18-19","checked":true},{"_id":"Sat:19-20","checked":true},{"_id":"Sat:20-21","checked":true},{"_id":"Sat:21-22","checked":true},{"_id":"Sat:22-23","checked":true},{"_id":"Sat:23-00","checked":true}],"totalHealthCheckCount":13,"totalTranscodeCount":0,"sizeDiff":0,"holdNewFiles":false,"holdFor":3600,"holdForDisplayUnit":"hours","pluginStackOverview":true,"filterResolutionsSkip":"","filterCodecsSkip":"","filterContainersSkip":"","processPluginsSequentially":true}}
2026-01-04T11:24:07.162Z b_HQy1FDG9-:Node[MyInternalNode]:Worker[fair-flies]:Fetching plugin data from server
2026-01-04T11:24:07.162Z b_HQy1FDG9-:Node[MyInternalNode]:Worker[fair-flies]:Scanning original library file
2026-01-04T11:24:07.162Z b_HQy1FDG9-:Node[MyInternalNode]:Worker[fair-flies]:{
2026-01-04T11:24:07.162Z   "exifToolScan": true,
2026-01-04T11:24:07.162Z   "mediaInfoScan": true,
2026-01-04T11:24:07.162Z   "closedCaptionScan": false
2026-01-04T11:24:07.162Z }
2026-01-04T11:24:07.163Z b_HQy1FDG9-:Node[MyInternalNode]:Worker[fair-flies]:Node scanning file
2026-01-04T11:26:26.877Z b_HQy1FDG9-:Node[MyInternalNode]:Worker[fair-flies]:Scan complete
2026-01-04T11:26:26.877Z b_HQy1FDG9-:Node[MyInternalNode]:Worker[fair-flies]:Original file scanned
2026-01-04T11:26:26.878Z b_HQy1FDG9-:Node[MyInternalNode]:Worker[fair-flies]:fileVersionOriginalLogJSONString:{"lastCliCommand":"","lastPluginId":"","sourceFile":{"_id":"/media/tv/Fallout/Season 1/Fallout.2024.S01E01.1080p.BDRip.DDP7.1.x265.-.Vialle.mkv","DB":"KU0woozLb","footprintId":"MwMUaAZSn1","file":"/media/tv/Fallout/Season 1/Fallout.2024.S01E01.1080p.BDRip.DDP7.1.x265.-.Vialle.mkv","fileNameWithoutExtension":"Fallout.2024.S01E01.1080p.BDRip.DDP7.1.x265.-.Vialle","container":"mkv","scannerReads":{"ffProbeRead":"success","exiftoolRead":"success","mediaInfoRead":"success","closedCaptionRead":"not enabled"},"createdAt":1767547584838,"lastPluginDetails":"none","bit_rate":8299338,"statSync":{"dev":2064,"mode":33261,"nlink":1,"uid":1000,"gid":1000,"rdev":0,"blksize":4096,"ino":386662411,"size":4453026845,"blocks":8697336,"atimeMs":1767547441885.2146,"mtimeMs":1767348242346.1667,"ctimeMs":1767388811606.6287,"birthtimeMs":1767349085504.0056,"atime":"2026-01-04T17:24:01.885Z","mtime":"2026-01-02T10:04:02.346Z","ctime":"2026-01-02T21:20:11.607Z","birthtime":"2026-01-02T10:18:05.504Z"},"file_size":4246.737332344055,"ffProbeData":{"streams":[{"index":0,"codec_name":"hevc","codec_long_name":"H.265 / HEVC (High Efficiency Video Coding)","profile":"Main 10","codec_type":"video","codec_tag_string":"[0][0][0][0]","codec_tag":"0x0000","width":1920,"height":800,"coded_width":1920,"coded_height":800,"closed_captions":0,"film_grain":0,"has_b_frames":2,"sample_aspect_ratio":"1:1","display_aspect_ratio":"12:5","pix_fmt":"yuv420p10le","level":120,"color_range":"tv","chroma_location":"left","refs":1,"view_ids_available":"","view_pos_available":"","r_frame_rate":"24000/1001","avg_frame_rate":"24000/1001","time_base":"1/1000","start_pts":0,"start_time":"0.000000","extradata_size":2552,"disposition":{"default":1,"dub":0,"original":0,"comment":0,"lyrics":0,"karaoke":0,"forced":0,"hearing_impaired":0,"visual_impaired":0,"clean_effects":0,"attached_pic":0,"timed_thumbnails":0,"non_diegetic":0,"captions":0,"descriptions":0,"metadata":0,"dependent":0,"still_image":0,"multilayer":0},"tags":{"BPS":"7227059","DURATION":"01:11:32.413000000","NUMBER_OF_FRAMES":"102915","NUMBER_OF_BYTES":"3877690639","_STATISTICS_WRITING_APP":"mkvmerge v95.0 ('Goodbye Stranger') 64-bit","_STATISTICS_WRITING_DATE_UTC":"2025-11-04 17:55:10","_STATISTICS_TAGS":"BPS DURATION NUMBER_OF_FRAMES NUMBER_OF_BYTES"}},{"index":1,"codec_name":"eac3","codec_long_name":"ATSC A/52B (AC-3, E-AC-3)","codec_type":"audio","codec_tag_string":"[0][0][0][0]","codec_tag":"0x0000","sample_fmt":"fltp","sample_rate":"48000","channels":8,"channel_layout":"7.1","bits_per_sample":0,"initial_padding":0,"r_frame_rate":"0/0","avg_frame_rate":"0/0","time_base":"1/1000","start_pts":0,"start_time":"0.000000","bit_rate":"1024000","disposition":{"default":1,"dub":0,"original":0,"comment":0,"lyrics":0,"karaoke":0,"forced":0,"hearing_impaired":0,"visual_impaired":0,"clean_effects":0,"attached_pic":0,"timed_thumbnails":0,"non_diegetic":0,"captions":0,"descriptions":0,"metadata":0,"dependent":0,"still_image":0,"multilayer":0},"tags":{"language":"eng","BPS":"1024000","DURATION":"01:11:32.416000000","NUMBER_OF_FRAMES":"134138","NUMBER_OF_BYTES":"549429248","_STATISTICS_WRITING_APP":"mkvmerge v95.0 ('Goodbye Stranger') 64-bit","_STATISTICS_WRITING_DATE_UTC":"2025-11-04 17:55:10","_STATISTICS_TAGS":"BPS DURATION NUMBER_OF_FRAMES NUMBER_OF_BYTES"}},{"index":2,"codec_name":"subrip","codec_long_name":"SubRip subtitle","codec_type":"subtitle","codec_tag_string":"[0][0][0][0]","codec_tag":"0x0000","r_frame_rate":"0/0","avg_frame_rate":"0/0","time_base":"1/1000","start_pts":0,"start_time":"0.000000","duration_ts":4292416,"duration":"4292.416000","disposition":{"default":0,"dub":0,"original":0,"comment":0,"lyrics":0,"karaoke":0,"forced":0,"hearing_impaired":0,"visual_impaired":0,"clean_effects":0,"attached_pic":0,"timed_thumbnails":0,"non_diegetic":0,"captions":0,"descriptions":0,"metadata":0,"dependent":0,"still_image":0,"multilayer":0},"tags":{"language":"eng","BPS":"40","DURATION":"01:10:02.048000000","NUMBER_OF_FRAMES":"703","NUMBER_OF_BYTES":"21091","_STATISTICS_WRITING_APP":"mkvmerge v95.0 ('Goodbye Stranger') 64-bit","_STATISTICS_WRITING_DATE_UTC":"2025-11-04 17:55:10","_STATISTICS_TAGS":"BPS DURATION NUMBER_OF_FRAMES NUMBER_OF_BYTES"}},{"index":3,"codec_name":"subrip","codec_long_name":"SubRip subtitle","codec_type":"subtitle","codec_tag_string":"[0][0][0][0]","codec_tag":"0x0000","r_frame_rate":"0/0","avg_frame_rate":"0/0","time_base":"1/1000","start_pts":0,"start_time":"0.000000","duration_ts":4292416,"duration":"4292.416000","disposition":{"default":0,"dub":0,"original":0,"comment":0,"lyrics":0,"karaoke":0,"forced":0,"hearing_impaired":1,"visual_impaired":0,"clean_effects":0,"attached_pic":0,"timed_thumbnails":0,"non_diegetic":0,"captions":0,"descriptions":0,"metadata":0,"dependent":0,"still_image":0,"multilayer":0},"tags":{"language":"eng","title":"SDH","BPS":"50","DURATION":"01:10:41.466000000","NUMBER_OF_FRAMES":"947","NUMBER_OF_BYTES":"26583","_STATISTICS_WRITING_APP":"mkvmerge v95.0 ('Goodbye Stranger') 64-bit","_STATISTICS_WRITING_DATE_UTC":"2025-11-04 17:55:10","_STATISTICS_TAGS":"BPS DURATION NUMBER_OF_FRAMES NUMBER_OF_BYTES"}},{"index":4,"codec_name":"hdmv_pgs_subtitle","codec_long_name":"HDMV Presentation Graphic Stream subtitles","codec_type":"subtitle","codec_tag_string":"[0][0][0][0]","codec_tag":"0x0000","r_frame_rate":"0/0","avg_frame_rate":"0/0","time_base":"1/1000","start_pts":0,"start_time":"0.000000","duration_ts":4292416,"duration":"4292.416000","disposition":{"default":0,"dub":0,"original":0,"comment":0,"lyrics":0,"karaoke":0,"forced":0,"hearing_impaired":1,"visual_impaired":0,"clean_effects":0,"attached_pic":0,"timed_thumbnails":0,"non_diegetic":0,"captions":0,"descriptions":0,"metadata":0,"dependent":0,"still_image":0,"multilayer":0},"tags":{"language":"eng","title":"SDH","BPS":"27180","DURATION":"01:09:37.027000000","NUMBER_OF_FRAMES":"1558","NUMBER_OF_BYTES":"14191611","_STATISTICS_WRITING_APP":"mkvmerge v95.0 ('Goodbye Stranger') 64-bit","_STATISTICS_WRITING_DATE_UTC":"2025-11-04 17:55:10","_STATISTICS_TAGS":"BPS DURATION NUMBER_OF_FRAMES NUMBER_OF_BYTES"}},{"index":5,"codec_name":"hdmv_pgs_subtitle","codec_long_name":"HDMV Presentation Graphic Stream subtitles","codec_type":"subtitle","codec_tag_string":"[0][0][0][0]","codec_tag":"0x0000","r_frame_rate":"0/0","avg_frame_rate":"0/0","time_base":"1/1000","start_pts":0,"start_time":"0.000000","duration_ts":4292416,"duration":"4292.416000","disposition":{"default":0,"dub":0,"original":0,"comment":0,"lyrics":0,"karaoke":0,"forced":0,"hearing_impaired":0,"visual_impaired":0,"clean_effects":0,"attached_pic":0,"timed_thumbnails":0,"non_diegetic":0,"captions":0,"descriptions":0,"metadata":0,"dependent":0,"still_image":0,"multilayer":0},"tags":{"language":"fre","BPS":"15863","DURATION":"01:11:04.698000000","NUMBER_OF_FRAMES":"1012","NUMBER_OF_BYTES":"8456753","_STATISTICS_WRITING_APP":"mkvmerge v95.0 ('Goodbye Stranger') 64-bit","_STATISTICS_WRITING_DATE_UTC":"2025-11-04 17:55:10","_STATISTICS_TAGS":"BPS DURATION NUMBER_OF_FRAMES NUMBER_OF_BYTES"}},{"index":6,"codec_name":"hdmv_pgs_subtitle","codec_long_name":"HDMV Presentation Graphic Stream subtitles","codec_type":"subtitle","codec_tag_string":"[0][0][0][0]","codec_tag":"0x0000","r_frame_rate":"0/0","avg_frame_rate":"0/0","time_base":"1/1000","start_pts":0,"start_time":"0.000000","duration_ts":4292416,"duration":"4292.416000","disposition":{"default":0,"dub":0,"original":0,"comment":0,"lyrics":0,"karaoke":0,"forced":0,"hearing_impaired":0,"visual_impaired":0,"clean_effects":0,"attached_pic":0,"timed_thumbnails":0,"non_diegetic":0,"captions":0,"descriptions":0,"metadata":0,"dependent":0,"still_image":0,"multilayer":0},"tags":{"language":"spa","BPS":"17346","DURATION":"01:11:04.698000000","NUMBER_OF_FRAMES":"942","NUMBER_OF_BYTES":"9247306","_STATISTICS_WRITING_APP":"mkvmerge v95.0 ('Goodbye Stranger') 64-bit","_STATISTICS_WRITING_DATE_UTC":"2025-11-04 17:55:10","_STATISTICS_TAGS":"BPS DURATION NUMBER_OF_FRAMES NUMBER_OF_BYTES"}},{"index":7,"codec_name":"hdmv_pgs_subtitle","codec_long_name":"HDMV Presentation Graphic Stream subtitles","codec_type":"subtitle","codec_tag_string":"[0][0][0][0]","codec_tag":"0x0000","r_frame_rate":"0/0","avg_frame_rate":"0/0","time_base":"1/1000","start_pts":0,"start_time":"0.000000","duration_ts":4292416,"duration":"4292.416000","disposition":{"default":0,"dub":0,"original":0,"comment":0,"lyrics":0,"karaoke":0,"forced":0,"hearing_impaired":0,"visual_impaired":0,"clean_effects":0,"attached_pic":0,"timed_thumbnails":0,"non_diegetic":0,"captions":0,"descriptions":0,"metadata":0,"dependent":0,"still_image":0,"multilayer":0},"tags":{"language":"dut","BPS":"16060","DURATION":"01:11:04.698000000","NUMBER_OF_FRAMES":"930","NUMBER_OF_BYTES":"8561727","_STATISTICS_WRITING_APP":"mkvmerge v95.0 ('Goodbye Stranger') 64-bit","_STATISTICS_WRITING_DATE_UTC":"2025-11-04 17:55:10","_STATISTICS_TAGS":"BPS DURATION NUMBER_OF_FRAMES NUMBER_OF_BYTES"}},{"index":8,"codec_name":"hdmv_pgs_subtitle","codec_long_name":"HDMV Presentation Graphic Stream subtitles","codec_type":"subtitle","codec_tag_string":"[0][0][0][0]","codec_tag":"0x0000","r_frame_rate":"0/0","avg_frame_rate":"0/0","time_base":"1/1000","start_pts":0,"start_time":"0.000000","duration_ts":4292416,"duration":"4292.416000","disposition":{"default":0,"dub":0,"original":0,"comment":0,"lyrics":0,"karaoke":0,"forced":0,"hearing_impaired":0,"visual_impaired":0,"clean_effects":0,"attached_pic":0,"timed_thumbnails":0,"non_diegetic":0,"captions":0,"descriptions":0,"metadata":0,"dependent":0,"still_image":0,"multilayer":0},"tags":{"language":"dan","BPS":"16130","DURATION":"01:10:29.538000000","NUMBER_OF_FRAMES":"990","NUMBER_OF_BYTES":"8528303","_STATISTICS_WRITING_APP":"mkvmerge v95.0 ('Goodbye Stranger') 64-bit","_STATISTICS_WRITING_DATE_UTC":"2025-11-04 17:55:10","_STATISTICS_TAGS":"BPS DURATION NUMBER_OF_FRAMES NUMBER_OF_BYTES"}},{"index":9,"codec_name":"hdmv_pgs_subtitle","codec_long_name":"HDMV Presentation Graphic Stream subtitles","codec_type":"subtitle","codec_tag_string":"[0][0][0][0]","codec_tag":"0x0000","r_frame_rate":"0/0","avg_frame_rate":"0/0","time_base":"1/1000","start_pts":0,"start_time":"0.000000","duration_ts":4292416,"duration":"4292.416000","disposition":{"default":0,"dub":0,"original":0,"comment":0,"lyrics":0,"karaoke":0,"forced":0,"hearing_impaired":0,"visual_impaired":0,"clean_effects":0,"attached_pic":0,"timed_thumbnails":0,"non_diegetic":0,"captions":0,"descriptions":0,"metadata":0,"dependent":0,"still_image":0,"multilayer":0},"tags":{"language":"fin","BPS":"16929","DURATION":"01:11:04.698000000","NUMBER_OF_FRAMES":"978","NUMBER_OF_BYTES":"9024662","_STATISTICS_WRITING_APP":"mkvmerge v95.0 ('Goodbye Stranger') 64-bit","_STATISTICS_WRITING_DATE_UTC":"2025-11-04 17:55:10","_STATISTICS_TAGS":"BPS DURATION NUMBER_OF_FRAMES NUMBER_OF_BYTES"}},{"index":10,"codec_name":"hdmv_pgs_subtitle","codec_long_name":"HDMV Presentation Graphic Stream subtitles","codec_type":"subtitle","codec_tag_string":"[0][0][0][0]","codec_tag":"0x0000","r_frame_rate":"0/0","avg_frame_rate":"0/0","time_base":"1/1000","start_pts":0,"start_time":"0.000000","duration_ts":4292416,"duration":"4292.416000","disposition":{"default":0,"dub":0,"original":0,"comment":0,"lyrics":0,"karaoke":0,"forced":0,"hearing_impaired":0,"visual_impaired":0,"clean_effects":0,"attached_pic":0,"timed_thumbnails":0,"non_diegetic":0,"captions":0,"descriptions":0,"metadata":0,"dependent":0,"still_image":0,"multilayer":0},"tags":{"language":"nor","BPS":"15800","DURATION":"01:11:04.698000000","NUMBER_OF_FRAMES":"988","NUMBER_OF_BYTES":"8423212","_STATISTICS_WRITING_APP":"mkvmerge v95.0 ('Goodbye Stranger') 64-bit","_STATISTICS_WRITING_DATE_UTC":"2025-11-04 17:55:10","_STATISTICS_TAGS":"BPS DURATION NUMBER_OF_FRAMES NUMBER_OF_BYTES"}},{"index":11,"codec_name":"hdmv_pgs_subtitle","codec_long_name":"HDMV Presentation Graphic Stream subtitles","codec_type":"subtitle","codec_tag_string":"[0][0][0][0]","codec_tag":"0x0000","r_frame_rate":"0/0","avg_frame_rate":"0/0","time_base":"1/1000","start_pts":0,"start_time":"0.000000","duration_ts":4292416,"duration":"4292.416000","disposition":{"default":0,"dub":0,"original":0,"comment":0,"lyrics":0,"karaoke":0,"forced":0,"hearing_impaired":0,"visual_impaired":0,"clean_effects":0,"attached_pic":0,"timed_thumbnails":0,"non_diegetic":0,"captions":0,"descriptions":0,"metadata":0,"dependent":0,"still_image":0,"multilayer":0},"tags":{"language":"swe","BPS":"16696","DURATION":"01:11:04.698000000","NUMBER_OF_FRAMES":"990","NUMBER_OF_BYTES":"8900591","_STATISTICS_WRITING_APP":"mkvmerge v95.0 ('Goodbye Stranger') 64-bit","_STATISTICS_WRITING_DATE_UTC":"2025-11-04 17:55:10","_STATISTICS_TAGS":"BPS DURATION NUMBER_OF_FRAMES NUMBER_OF_BYTES"}},{"index":12,"codec_name":"subrip","codec_long_name":"SubRip subtitle","codec_type":"subtitle","codec_tag_string":"[0][0][0][0]","codec_tag":"0x0000","r_frame_rate":"0/0","avg_frame_rate":"0/0","time_base":"1/1000","start_pts":0,"start_time":"0.000000","duration_ts":4292416,"duration":"4292.416000","disposition":{"default":0,"dub":0,"original":0,"comment":0,"lyrics":0,"karaoke":0,"forced":0,"hearing_impaired":0,"visual_impaired":0,"clean_effects":0,"attached_pic":0,"timed_thumbnails":0,"non_diegetic":0,"captions":0,"descriptions":0,"metadata":0,"dependent":0,"still_image":0,"multilayer":0},"tags":{"language":"ara","BPS":"48","DURATION":"01:10:56.160000000","NUMBER_OF_FRAMES":"501","NUMBER_OF_BYTES":"25597","_STATISTICS_WRITING_APP":"mkvmerge v95.0 ('Goodbye Stranger') 64-bit","_STATISTICS_WRITING_DATE_UTC":"2025-11-04 17:55:10","_STATISTICS_TAGS":"BPS DURATION NUMBER_OF_FRAMES NUMBER_OF_BYTES"}},{"index":13,"codec_name":"subrip","codec_long_name":"SubRip subtitle","codec_type":"subtitle","codec_tag_string":"[0][0][0][0]","codec_tag":"0x0000","r_frame_rate":"0/0","avg_frame_rate":"0/0","time_base":"1/1000","start_pts":0,"start_time":"0.000000","duration_ts":4292416,"duration":"4292.416000","disposition":{"default":0,"dub":0,"original":0,"comment":0,"lyrics":0,"karaoke":0,"forced":0,"hearing_impaired":0,"visual_impaired":0,"clean_effects":0,"attached_pic":0,"timed_thumbnails":0,"non_diegetic":0,"captions":0,"descriptions":0,"metadata":0,"dependent":0,"still_image":0,"multilayer":0},"tags":{"language":"cat","title":"European","BPS":"26","DURATION":"01:10:56.160000000","NUMBER_OF_FRAMES":"495","NUMBER_OF_BYTES":"13992","_STATISTICS_WRITING_APP":"mkvmerge v95.0 ('Goodbye Stranger') 64-bit","_STATISTICS_WRITING_DATE_UTC":"2025-11-04 17:55:10","_STATISTICS_TAGS":"BPS DURATION NUMBER_OF_FRAMES NUMBER_OF_BYTES"}},{"index":14,"codec_name":"subrip","codec_long_name":"SubRip subtitle","codec_type":"subtitle","codec_tag_string":"[0][0][0][0]","codec_tag":"0x0000","r_frame_rate":"0/0","avg_frame_rate":"0/0","time_base":"1/1000","start_pts":0,"start_time":"0.000000","duration_ts":4292416,"duration":"4292.416000","disposition":{"default":0,"dub":0,"original":0,"comment":0,"lyrics":0,"karaoke":0,"forced":0,"hearing_impaired":0,"visual_impaired":0,"clean_effects":0,"attached_pic":0,"timed_thumbnails":0,"non_diegetic":0,"captions":0,"descriptions":0,"metadata":0,"dependent":0,"still_image":0,"multilayer":0},"tags":{"language":"cze","BPS":"29","DURATION":"01:10:56.160000000","NUMBER_OF_FRAMES":"494","NUMBER_OF_BYTES":"15748","_STATISTICS_WRITING_APP":"mkvmerge v95.0 ('Goodbye Stranger') 64-bit","_STATISTICS_WRITING_DATE_UTC":"2025-11-04 17:55:10","_STATISTICS_TAGS":"BPS DURATION NUMBER_OF_FRAMES NUMBER_OF_BYTES"}},{"index":15,"codec_name":"subrip","codec_long_name":"SubRip subtitle","codec_type":"subtitle","codec_tag_string":"[0][0][0][0]","codec_tag":"0x0000","r_frame_rate":"0/0","avg_frame_rate":"0/0","time_base":"1/1000","start_pts":0,"start_time":"0.000000","duration_ts":4292416,"duration":"4292.416000","disposition":{"default":0,"dub":0,"original":0,"comment":0,"lyrics":0,"karaoke":0,"forced":0,"hearing_impaired":0,"visual_impaired":0,"clean_effects":0,"attached_pic":0,"timed_thumbnails":0,"non_diegetic":0,"captions":0,"descriptions":0,"metadata":0,"dependent":0,"still_image":0,"multilayer":0},"tags":{"language":"dan","BPS":"26","DURATION":"01:10:56.160000000","NUMBER_OF_FRAMES":"497","NUMBER_OF_BYTES":"14308","_STATISTICS_WRITING_APP":"mkvmerge v95.0 ('Goodbye Stranger') 64-bit","_STATISTICS_WRITING_DATE_UTC":"2025-11-04 17:55:10","_STATISTICS_TAGS":"BPS DURATION NUMBER_OF_FRAMES NUMBER_OF_BYTES"}},{"index":16,"codec_name":"subrip","codec_long_name":"SubRip subtitle","codec_type":"subtitle","codec_tag_string":"[0][0][0][0]","codec_tag":"0x0000","r_frame_rate":"0/0","avg_frame_rate":"0/0","time_base":"1/1000","start_pts":0,"start_time":"0.000000","duration_ts":4292416,"duration":"4292.416000","disposition":{"default":0,"dub":0,"original":0,"comment":0,"lyrics":0,"karaoke":0,"forced":0,"hearing_impaired":0,"visual_impaired":0,"clean_effects":0,"attached_pic":0,"timed_thumbnails":0,"non_diegetic":0,"captions":0,"descriptions":0,"metadata":0,"dependent":0,"still_image":0,"multilayer":0},"tags":{"language":"ger","BPS":"28","DURATION":"01:10:56.160000000","NUMBER_OF_FRAMES":"496","NUMBER_OF_BYTES":"15081","_STATISTICS_WRITING_APP":"mkvmerge v95.0 ('Goodbye Stranger') 64-bit","_STATISTICS_WRITING_DATE_UTC":"2025-11-04 17:55:10","_STATISTICS_TAGS":"BPS DURATION NUMBER_OF_FRAMES NUMBER_OF_BYTES"}},{"index":17,"codec_name":"subrip","codec_long_name":"SubRip subtitle","codec_type":"subtitle","codec_tag_string":"[0][0][0][0]","codec_tag":"0x0000","r_frame_rate":"0/0","avg_frame_rate":"0/0","time_base":"1/1000","start_pts":0,"start_time":"0.000000","duration_ts":4292416,"duration":"4292.416000","disposition":{"default":0,"dub":0,"original":0,"comment":0,"lyrics":0,"karaoke":0,"forced":0,"hearing_impaired":0,"visual_impaired":0,"clean_effects":0,"attached_pic":0,"timed_thumbnails":0,"non_diegetic":0,"captions":0,"descriptions":0,"metadata":0,"dependent":0,"still_image":0,"multilayer":0},"tags":{"language":"gre","BPS":"52","DURATION":"01:10:56.160000000","NUMBER_OF_FRAMES":"498","NUMBER_OF_BYTES":"27983","_STATISTICS_WRITING_APP":"mkvmerge v95.0 ('Goodbye Stranger') 64-bit","_STATISTICS_WRITING_DATE_UTC":"2025-11-04 17:55:10","_STATISTICS_TAGS":"BPS DURATION NUMBER_OF_FRAMES NUMBER_OF_BYTES"}},{"index":18,"codec_name":"subrip","codec_long_name":"SubRip subtitle","codec_type":"subtitle","codec_tag_string":"[0][0][0][0]","codec_tag":"0x0000","r_frame_rate":"0/0","avg_frame_rate":"0/0","time_base":"1/1000","start_pts":0,"start_time":"0.000000","duration_ts":4292416,"duration":"4292.416000","disposition":{"default":0,"dub":0,"original":0,"comment":0,"lyrics":0,"karaoke":0,"forced":0,"hearing_impaired":0,"visual_impaired":0,"clean_effects":0,"attached_pic":0,"timed_thumbnails":0,"non_diegetic":0,"captions":0,"descriptions":0,"metadata":0,"dependent":0,"still_image":0,"multilayer":0},"tags":{"language":"spa","title":"Latin American","BPS":"28","DURATION":"01:10:56.202000000","NUMBER_OF_FRAMES":"496","NUMBER_OF_BYTES":"15125","_STATISTICS_WRITING_APP":"mkvmerge v95.0 ('Goodbye Stranger') 64-bit","_STATISTICS_WRITING_DATE_UTC":"2025-11-04 17:55:10","_STATISTICS_TAGS":"BPS DURATION NUMBER_OF_FRAMES NUMBER_OF_BYTES"}},{"index":19,"codec_name":"subrip","codec_long_name":"SubRip subtitle","codec_type":"subtitle","codec_tag_string":"[0][0][0][0]","codec_tag":"0x0000","r_frame_rate":"0/0","avg_frame_rate":"0/0","time_base":"1/1000","start_pts":0,"start_time":"0.000000","duration_ts":4292416,"duration":"4292.416000","disposition":{"default":0,"dub":0,"original":0,"comment":0,"lyrics":0,"karaoke":0,"forced":0,"hearing_impaired":0,"visual_impaired":0,"clean_effects":0,"attached_pic":0,"timed_thumbnails":0,"non_diegetic":0,"captions":0,"descriptions":0,"metadata":0,"dependent":0,"still_image":0,"multilayer":0},"tags":{"language":"spa","title":"European","BPS":"29","DURATION":"01:10:56.160000000","NUMBER_OF_FRAMES":"472","NUMBER_OF_BYTES":"15647","_STATISTICS_WRITING_APP":"mkvmerge v95.0 ('Goodbye Stranger') 64-bit","_STATISTICS_WRITING_DATE_UTC":"2025-11-04 17:55:10","_STATISTICS_TAGS":"BPS DURATION NUMBER_OF_FRAMES NUMBER_OF_BYTES"}},{"index":20,"codec_name":"subrip","codec_long_name":"SubRip subtitle","codec_type":"subtitle","codec_tag_string":"[0][0][0][0]","codec_tag":"0x0000","r_frame_rate":"0/0","avg_frame_rate":"0/0","time_base":"1/1000","start_pts":0,"start_time":"0.000000","duration_ts":4292416,"duration":"4292.416000","disposition":{"default":0,"dub":0,"original":0,"comment":0,"lyrics":0,"karaoke":0,"forced":0,"hearing_impaired":0,"visual_impaired":0,"clean_effects":0,"attached_pic":0,"timed_thumbnails":0,"non_diegetic":0,"captions":0,"descriptions":0,"metadata":0,"dependent":0,"still_image":0,"multilayer":0},"tags":{"language":"baq","title":"European","BPS":"25","DURATION":"01:10:56.160000000","NUMBER_OF_FRAMES":"496","NUMBER_OF_BYTES":"13831","_STATISTICS_WRITING_APP":"mkvmerge v95.0 ('Goodbye Stranger') 64-bit","_STATISTICS_WRITING_DATE_UTC":"2025-11-04 17:55:10","_STATISTICS_TAGS":"BPS DURATION NUMBER_OF_FRAMES NUMBER_OF_BYTES"}},{"index":21,"codec_name":"subrip","codec_long_name":"SubRip subtitle","codec_type":"subtitle","codec_tag_string":"[0][0][0][0]","codec_tag":"0x0000","r_frame_rate":"0/0","avg_frame_rate":"0/0","time_base":"1/1000","start_pts":0,"start_time":"0.000000","duration_ts":4292416,"duration":"4292.416000","disposition":{"default":0,"dub":0,"original":0,"comment":0,"lyrics":0,"karaoke":0,"forced":0,"hearing_impaired":0,"visual_impaired":0,"clean_effects":0,"attached_pic":0,"timed_thumbnails":0,"non_diegetic":0,"captions":0,"descriptions":0,"metadata":0,"dependent":0,"still_image":0,"multilayer":0},"tags":{"language":"fin","BPS":"27","DURATION":"01:10:56.160000000","NUMBER_OF_FRAMES":"493","NUMBER_OF_BYTES":"14800","_STATISTICS_WRITING_APP":"mkvmerge v95.0 ('Goodbye Stranger') 64-bit","_STATISTICS_WRITING_DATE_UTC":"2025-11-04 17:55:10","_STATISTICS_TAGS":"BPS DURATION NUMBER_OF_FRAMES NUMBER_OF_BYTES"}},{"index":22,"codec_name":"subrip","codec_long_name":"SubRip subtitle","codec_type":"subtitle","codec_tag_string":"[0][0][0][0]","codec_tag":"0x0000","r_frame_rate":"0/0","avg_frame_rate":"0/0","time_base":"1/1000","start_pts":0,"start_time":"0.000000","duration_ts":4292416,"duration":"4292.416000","disposition":{"default":0,"dub":0,"original":0,"comment":0,"lyrics":0,"karaoke":0,"forced":0,"hearing_impaired":0,"visual_impaired":0,"clean_effects":0,"attached_pic":0,"timed_thumbnails":0,"non_diegetic":0,"captions":0,"descriptions":0,"metadata":0,"dependent":0,"still_image":0,"multilayer":0},"tags":{"language":"fil","BPS":"31","DURATION":"01:10:21.070000000","NUMBER_OF_FRAMES":"489","NUMBER_OF_BYTES":"16393","_STATISTICS_WRITING_APP":"mkvmerge v95.0 ('Goodbye Stranger') 64-bit","_STATISTICS_WRITING_DATE_UTC":"2025-11-04 17:55:10","_STATISTICS_TAGS":"BPS DURATION NUMBER_OF_FRAMES NUMBER_OF_BYTES"}},{"index":23,"codec_name":"subrip","codec_long_name":"SubRip subtitle","codec_type":"subtitle","codec_tag_string":"[0][0][0][0]","codec_tag":"0x0000","r_frame_rate":"0/0","avg_frame_rate":"0/0","time_base":"1/1000","start_pts":0,"start_time":"0.000000","duration_ts":4292416,"duration":"4292.416000","disposition":{"default":0,"dub":0,"original":0,"comment":0,"lyrics":0,"karaoke":0,"forced":0,"hearing_impaired":0,"visual_impaired":0,"clean_effects":0,"attached_pic":0,"timed_thumbnails":0,"non_diegetic":0,"captions":0,"descriptions":0,"metadata":0,"dependent":0,"still_image":0,"multilayer":0},"tags":{"language":"fre","title":"Canadian","BPS":"30","DURATION":"01:10:56.160000000","NUMBER_OF_FRAMES":"493","NUMBER_OF_BYTES":"16313","_STATISTICS_WRITING_APP":"mkvmerge v95.0 ('Goodbye Stranger') 64-bit","_STATISTICS_WRITING_DATE_UTC":"2025-11-04 17:55:10","_STATISTICS_TAGS":"BPS DURATION NUMBER_OF_FRAMES NUMBER_OF_BYTES"}},{"index":24,"codec_name":"subrip","codec_long_name":"SubRip subtitle","codec_type":"subtitle","codec_tag_string":"[0][0][0][0]","codec_tag":"0x0000","r_frame_rate":"0/0","avg_frame_rate":"0/0","time_base":"1/1000","start_pts":0,"start_time":"0.000000","duration_ts":4292416,"duration":"4292.416000","disposition":{"default":0,"dub":0,"original":0,"comment":0,"lyrics":0,"karaoke":0,"forced":0,"hearing_impaired":0,"visual_impaired":0,"clean_effects":0,"attached_pic":0,"timed_thumbnails":0,"non_diegetic":0,"captions":0,"descriptions":0,"metadata":0,"dependent":0,"still_image":0,"multilayer":0},"tags":{"language":"fre","title":"European","BPS":"26","DURATION":"01:10:56.160000000","NUMBER_OF_FRAMES":"508","NUMBER_OF_BYTES":"14307","_STATISTICS_WRITING_APP":"mkvmerge v95.0 ('Goodbye Stranger') 64-bit","_STATISTICS_WRITING_DATE_UTC":"2025-11-04 17:55:10","_STATISTICS_TAGS":"BPS DURATION NUMBER_OF_FRAMES NUMBER_OF_BYTES"}},{"index":25,"codec_name":"subrip","codec_long_name":"SubRip subtitle","codec_type":"subtitle","codec_tag_string":"[0][0][0][0]","codec_tag":"0x0000","r_frame_rate":"0/0","avg_frame_rate":"0/0","time_base":"1/1000","start_pts":0,"start_time":"0.000000","duration_ts":4292416,"duration":"4292.416000","disposition":{"default":0,"dub":0,"original":0,"comment":0,"lyrics":0,"karaoke":0,"forced":0,"hearing_impaired":0,"visual_impaired":0,"clean_effects":0,"attached_pic":0,"timed_thumbnails":0,"non_diegetic":0,"captions":0,"descriptions":0,"metadata":0,"dependent":0,"still_image":0,"multilayer":0},"tags":{"language":"glg","title":"European","BPS":"26","DURATION":"01:10:56.160000000","NUMBER_OF_FRAMES":"496","NUMBER_OF_BYTES":"14216","_STATISTICS_WRITING_APP":"mkvmerge v95.0 ('Goodbye Stranger') 64-bit","_STATISTICS_WRITING_DATE_UTC":"2025-11-04 17:55:10","_STATISTICS_TAGS":"BPS DURATION NUMBER_OF_FRAMES NUMBER_OF_BYTES"}},{"index":26,"codec_name":"subrip","codec_long_name":"SubRip subtitle","codec_type":"subtitle","codec_tag_string":"[0][0][0][0]","codec_tag":"0x0000","r_frame_rate":"0/0","avg_frame_rate":"0/0","time_base":"1/1000","start_pts":0,"start_time":"0.000000","duration_ts":4292416,"duration":"4292.416000","disposition":{"default":0,"dub":0,"original":0,"comment":0,"lyrics":0,"karaoke":0,"forced":0,"hearing_impaired":0,"visual_impaired":0,"clean_effects":0,"attached_pic":0,"timed_thumbnails":0,"non_diegetic":0,"captions":0,"descriptions":0,"metadata":0,"dependent":0,"still_image":0,"multilayer":0},"tags":{"language":"heb","BPS":"44","DURATION":"01:10:56.160000000","NUMBER_OF_FRAMES":"503","NUMBER_OF_BYTES":"23698","_STATISTICS_WRITING_APP":"mkvmerge v95.0 ('Goodbye Stranger') 64-bit","_STATISTICS_WRITING_DATE_UTC":"2025-11-04 17:55:10","_STATISTICS_TAGS":"BPS DURATION NUMBER_OF_FRAMES NUMBER_OF_BYTES"}},{"index":27,"codec_name":"subrip","codec_long_name":"SubRip subtitle","codec_type":"subtitle","codec_tag_string":"[0][0][0][0]","codec_tag":"0x0000","r_frame_rate":"0/0","avg_frame_rate":"0/0","time_base":"1/1000","start_pts":0,"start_time":"0.000000","duration_ts":4292416,"duration":"4292.416000","disposition":{"default":0,"dub":0,"original":0,"comment":0,"lyrics":0,"karaoke":0,"forced":0,"hearing_impaired":0,"visual_impaired":0,"clean_effects":0,"attached_pic":0,"timed_thumbnails":0,"non_diegetic":0,"captions":0,"descriptions":0,"metadata":0,"dependent":0,"still_image":0,"multilayer":0},"tags":{"language":"hin","BPS":"63","DURATION":"01:10:56.160000000","NUMBER_OF_FRAMES":"503","NUMBER_OF_BYTES":"33738","_STATISTICS_WRITING_APP":"mkvmerge v95.0 ('Goodbye Stranger') 64-bit","_STATISTICS_WRITING_DATE_UTC":"2025-11-04 17:55:10","_STATISTICS_TAGS":"BPS DURATION NUMBER_OF_FRAMES NUMBER_OF_BYTES"}},{"index":28,"codec_name":"subrip","codec_long_name":"SubRip subtitle","codec_type":"subtitle","codec_tag_string":"[0][0][0][0]","codec_tag":"0x0000","r_frame_rate":"0/0","avg_frame_rate":"0/0","time_base":"1/1000","start_pts":0,"start_time":"0.000000","duration_ts":4292416,"duration":"4292.416000","disposition":{"default":0,"dub":0,"original":0,"comment":0,"lyrics":0,"karaoke":0,"forced":0,"hearing_impaired":0,"visual_impaired":0,"clean_effects":0,"attached_pic":0,"timed_thumbnails":0,"non_diegetic":0,"captions":0,"descriptions":0,"metadata":0,"dependent":0,"still_image":0,"multilayer":0},"tags":{"language":"hun","BPS":"29","DURATION":"01:10:56.160000000","NUMBER_OF_FRAMES":"494","NUMBER_OF_BYTES":"15622","_STATISTICS_WRITING_APP":"mkvmerge v95.0 ('Goodbye Stranger') 64-bit","_STATISTICS_WRITING_DATE_UTC":"2025-11-04 17:55:10","_STATISTICS_TAGS":"BPS DURATION NUMBER_OF_FRAMES NUMBER_OF_BYTES"}},{"index":29,"codec_name":"subrip","codec_long_name":"SubRip subtitle","codec_type":"subtitle","codec_tag_string":"[0][0][0][0]","codec_tag":"0x0000","r_frame_rate":"0/0","avg_frame_rate":"0/0","time_base":"1/1000","start_pts":0,"start_time":"0.000000","duration_ts":4292416,"duration":"4292.416000","disposition":{"default":0,"dub":0,"original":0,"comment":0,"lyrics":0,"karaoke":0,"forced":0,"hearing_impaired":0,"visual_impaired":0,"clean_effects":0,"attached_pic":0,"timed_thumbnails":0,"non_diegetic":0,"captions":0,"descriptions":0,"metadata":0,"dependent":0,"still_image":0,"multilayer":0},"tags":{"language":"ind","BPS":"27","DURATION":"01:10:56.160000000","NUMBER_OF_FRAMES":"493","NUMBER_OF_BYTES":"14557","_STATISTICS_WRITING_APP":"mkvmerge v95.0 ('Goodbye Stranger') 64-bit","_STATISTICS_WRITING_DATE_UTC":"2025-11-04 17:55:10","_STATISTICS_TAGS":"BPS DURATION NUMBER_OF_FRAMES NUMBER_OF_BYTES"}},{"index":30,"codec_name":"subrip","codec_long_name":"SubRip subtitle","codec_type":"subtitle","codec_tag_string":"[0][0][0][0]","codec_tag":"0x0000","r_frame_rate":"0/0","avg_frame_rate":"0/0","time_base":"1/1000","start_pts":0,"start_time":"0.000000","duration_ts":4292416,"duration":"4292.416000","disposition":{"default":0,"dub":0,"original":0,"comment":0,"lyrics":0,"karaoke":0,"forced":0,"hearing_impaired":0,"visual_impaired":0,"clean_effects":0,"attached_pic":0,"timed_thumbnails":0,"non_diegetic":0,"captions":0,"descriptions":0,"metadata":0,"dependent":0,"still_image":0,"multilayer":0},"tags":{"language":"ita","BPS":"28","DURATION":"01:10:56.160000000","NUMBER_OF_FRAMES":"485","NUMBER_OF_BYTES":"15179","_STATISTICS_WRITING_APP":"mkvmerge v95.0 ('Goodbye Stranger') 64-bit","_STATISTICS_WRITING_DATE_UTC":"2025-11-04 17:55:10","_STATISTICS_TAGS":"BPS DURATION NUMBER_OF_FRAMES NUMBER_OF_BYTES"}},{"index":31,"codec_name":"subrip","codec_long_name":"SubRip subtitle","codec_type":"subtitle","codec_tag_string":"[0][0][0][0]","codec_tag":"0x0000","r_frame_rate":"0/0","avg_frame_rate":"0/0","time_base":"1/1000","start_pts":0,"start_time":"0.000000","duration_ts":4292416,"duration":"4292.416000","disposition":{"default":0,"dub":0,"original":0,"comment":0,"lyrics":0,"karaoke":0,"forced":0,"hearing_impaired":0,"visual_impaired":0,"clean_effects":0,"attached_pic":0,"timed_thumbnails":0,"non_diegetic":0,"captions":0,"descriptions":0,"metadata":0,"dependent":0,"still_image":0,"multilayer":0},"tags":{"language":"jpn","BPS":"26","DURATION":"01:10:56.160000000","NUMBER_OF_FRAMES":"487","NUMBER_OF_BYTES":"14289","_STATISTICS_WRITING_APP":"mkvmerge v95.0 ('Goodbye Stranger') 64-bit","_STATISTICS_WRITING_DATE_UTC":"2025-11-04 17:55:10","_STATISTICS_TAGS":"BPS DURATION NUMBER_OF_FRAMES NUMBER_OF_BYTES"}},{"index":32,"codec_name":"subrip","codec_long_name":"SubRip subtitle","codec_type":"subtitle","codec_tag_string":"[0][0][0][0]","codec_tag":"0x0000","r_frame_rate":"0/0","avg_frame_rate":"0/0","time_base":"1/1000","start_pts":0,"start_time":"0.000000","duration_ts":4292416,"duration":"4292.416000","disposition":{"default":0,"dub":0,"original":0,"comment":0,"lyrics":0,"karaoke":0,"forced":0,"hearing_impaired":0,"visual_impaired":0,"clean_effects":0,"attached_pic":0,"timed_thumbnails":0,"non_diegetic":0,"captions":0,"descriptions":0,"metadata":0,"dependent":0,"still_image":0,"multilayer":0},"tags":{"language":"kan","BPS":"71","DURATION":"01:10:56.160000000","NUMBER_OF_FRAMES":"503","NUMBER_OF_BYTES":"37911","_STATISTICS_WRITING_APP":"mkvmerge v95.0 ('Goodbye Stranger') 64-bit","_STATISTICS_WRITING_DATE_UTC":"2025-11-04 17:55:10","_STATISTICS_TAGS":"BPS DURATION NUMBER_OF_FRAMES NUMBER_OF_BYTES"}},{"index":33,"codec_name":"subrip","codec_long_name":"SubRip subtitle","codec_type":"subtitle","codec_tag_string":"[0][0][0][0]","codec_tag":"0x0000","r_frame_rate":"0/0","avg_frame_rate":"0/0","time_base":"1/1000","start_pts":0,"start_time":"0.000000","duration_ts":4292416,"duration":"4292.416000","disposition":{"default":0,"dub":0,"original":0,"comment":0,"lyrics":0,"karaoke":0,"forced":0,"hearing_impaired":0,"visual_impaired":0,"clean_effects":0,"attached_pic":0,"timed_thumbnails":0,"non_diegetic":0,"captions":0,"descriptions":0,"metadata":0,"dependent":0,"still_image":0,"multilayer":0},"tags":{"language":"kor","BPS":"30","DURATION":"01:10:56.160000000","NUMBER_OF_FRAMES":"502","NUMBER_OF_BYTES":"16071","_STATISTICS_WRITING_APP":"mkvmerge v95.0 ('Goodbye Stranger') 64-bit","_STATISTICS_WRITING_DATE_UTC":"2025-11-04 17:55:10","_STATISTICS_TAGS":"BPS DURATION NUMBER_OF_FRAMES NUMBER_OF_BYTES"}},{"index":34,"codec_name":"subrip","codec_long_name":"SubRip subtitle","codec_type":"subtitle","codec_tag_string":"[0][0][0][0]","codec_tag":"0x0000","r_frame_rate":"0/0","avg_frame_rate":"0/0","time_base":"1/1000","start_pts":0,"start_time":"0.000000","duration_ts":4292416,"duration":"4292.416000","disposition":{"default":0,"dub":0,"original":0,"comment":0,"lyrics":0,"karaoke":0,"forced":0,"hearing_impaired":0,"visual_impaired":0,"clean_effects":0,"attached_pic":0,"timed_thumbnails":0,"non_diegetic":0,"captions":0,"descriptions":0,"metadata":0,"dependent":0,"still_image":0,"multilayer":0},"tags":{"language":"mal","BPS":"85","DURATION":"01:10:56.160000000","NUMBER_OF_FRAMES":"498","NUMBER_OF_BYTES":"45498","_STATISTICS_WRITING_APP":"mkvmerge v95.0 ('Goodbye Stranger') 64-bit","_STATISTICS_WRITING_DATE_UTC":"2025-11-04 17:55:10","_STATISTICS_TAGS":"BPS DURATION NUMBER_OF_FRAMES NUMBER_OF_BYTES"}},{"index":35,"codec_name":"subrip","codec_long_name":"SubRip subtitle","codec_type":"subtitle","codec_tag_string":"[0][0][0][0]","codec_tag":"0x0000","r_frame_rate":"0/0","avg_frame_rate":"0/0","time_base":"1/1000","start_pts":0,"start_time":"0.000000","duration_ts":4292416,"duration":"4292.416000","disposition":{"default":0,"dub":0,"original":0,"comment":0,"lyrics":0,"karaoke":0,"forced":0,"hearing_impaired":0,"visual_impaired":0,"clean_effects":0,"attached_pic":0,"timed_thumbnails":0,"non_diegetic":0,"captions":0,"descriptions":0,"metadata":0,"dependent":0,"still_image":0,"multilayer":0},"tags":{"language":"may","BPS":"29","DURATION":"01:10:56.160000000","NUMBER_OF_FRAMES":"493","NUMBER_OF_BYTES":"15805","_STATISTICS_WRITING_APP":"mkvmerge v95.0 ('Goodbye Stranger') 64-bit","_STATISTICS_WRITING_DATE_UTC":"2025-11-04 17:55:10","_STATISTICS_TAGS":"BPS DURATION NUMBER_OF_FRAMES NUMBER_OF_BYTES"}},{"index":36,"codec_name":"subrip","codec_long_name":"SubRip subtitle","codec_type":"subtitle","codec_tag_string":"[0][0][0][0]","codec_tag":"0x0000","r_frame_rate":"0/0","avg_frame_rate":"0/0","time_base":"1/1000","start_pts":0,"start_time":"0.000000","duration_ts":4292416,"duration":"4292.416000","disposition":{"default":0,"dub":0,"original":0,"comment":0,"lyrics":0,"karaoke":0,"forced":0,"hearing_impaired":0,"visual_impaired":0,"clean_effects":0,"attached_pic":0,"timed_thumbnails":0,"non_diegetic":0,"captions":0,"descriptions":0,"metadata":0,"dependent":0,"still_image":0,"multilayer":0},"tags":{"language":"nob","BPS":"26","DURATION":"01:10:56.160000000","NUMBER_OF_FRAMES":"495","NUMBER_OF_BYTES":"14151","_STATISTICS_WRITING_APP":"mkvmerge v95.0 ('Goodbye Stranger') 64-bit","_STATISTICS_WRITING_DATE_UTC":"2025-11-04 17:55:10","_STATISTICS_TAGS":"BPS DURATION NUMBER_OF_FRAMES NUMBER_OF_BYTES"}},{"index":37,"codec_name":"subrip","codec_long_name":"SubRip subtitle","codec_type":"subtitle","codec_tag_string":"[0][0][0][0]","codec_tag":"0x0000","r_frame_rate":"0/0","avg_frame_rate":"0/0","time_base":"1/1000","start_pts":0,"start_time":"0.000000","duration_ts":4292416,"duration":"4292.416000","disposition":{"default":0,"dub":0,"original":0,"comment":0,"lyrics":0,"karaoke":0,"forced":0,"hearing_impaired":0,"visual_impaired":0,"clean_effects":0,"attached_pic":0,"timed_thumbnails":0,"non_diegetic":0,"captions":0,"descriptions":0,"metadata":0,"dependent":0,"still_image":0,"multilayer":0},"tags":{"language":"dut","BPS":"25","DURATION":"01:10:56.160000000","NUMBER_OF_FRAMES":"480","NUMBER_OF_BYTES":"13606","_STATISTICS_WRITING_APP":"mkvmerge v95.0 ('Goodbye Stranger') 64-bit","_STATISTICS_WRITING_DATE_UTC":"2025-11-04 17:55:10","_STATISTICS_TAGS":"BPS DURATION NUMBER_OF_FRAMES NUMBER_OF_BYTES"}},{"index":38,"codec_name":"subrip","codec_long_name":"SubRip subtitle","codec_type":"subtitle","codec_tag_string":"[0][0][0][0]","codec_tag":"0x0000","r_frame_rate":"0/0","avg_frame_rate":"0/0","time_base":"1/1000","start_pts":0,"start_time":"0.000000","duration_ts":4292416,"duration":"4292.416000","disposition":{"default":0,"dub":0,"original":0,"comment":0,"lyrics":0,"karaoke":0,"forced":0,"hearing_impaired":0,"visual_impaired":0,"clean_effects":0,"attached_pic":0,"timed_thumbnails":0,"non_diegetic":0,"captions":0,"descriptions":0,"metadata":0,"dependent":0,"still_image":0,"multilayer":0},"tags":{"language":"pol","BPS":"24","DURATION":"01:10:56.160000000","NUMBER_OF_FRAMES":"492","NUMBER_OF_BYTES":"12975","_STATISTICS_WRITING_APP":"mkvmerge v95.0 ('Goodbye Stranger') 64-bit","_STATISTICS_WRITING_DATE_UTC":"2025-11-04 17:55:10","_STATISTICS_TAGS":"BPS DURATION NUMBER_OF_FRAMES NUMBER_OF_BYTES"}},{"index":39,"codec_name":"subrip","codec_long_name":"SubRip subtitle","codec_type":"subtitle","codec_tag_string":"[0][0][0][0]","codec_tag":"0x0000","r_frame_rate":"0/0","avg_frame_rate":"0/0","time_base":"1/1000","start_pts":0,"start_time":"0.000000","duration_ts":4292416,"duration":"4292.416000","disposition":{"default":0,"dub":0,"original":0,"comment":0,"lyrics":0,"karaoke":0,"forced":0,"hearing_impaired":0,"visual_impaired":0,"clean_effects":0,"attached_pic":0,"timed_thumbnails":0,"non_diegetic":0,"captions":0,"descriptions":0,"metadata":0,"dependent":0,"still_image":0,"multilayer":0},"tags":{"language":"por","title":"Brazilian","BPS":"27","DURATION":"01:10:56.160000000","NUMBER_OF_FRAMES":"496","NUMBER_OF_BYTES":"14532","_STATISTICS_WRITING_APP":"mkvmerge v95.0 ('Goodbye Stranger') 64-bit","_STATISTICS_WRITING_DATE_UTC":"2025-11-04 17:55:10","_STATISTICS_TAGS":"BPS DURATION NUMBER_OF_FRAMES NUMBER_OF_BYTES"}},{"index":40,"codec_name":"subrip","codec_long_name":"SubRip subtitle","codec_type":"subtitle","codec_tag_string":"[0][0][0][0]","codec_tag":"0x0000","r_frame_rate":"0/0","avg_frame_rate":"0/0","time_base":"1/1000","start_pts":0,"start_time":"0.000000","duration_ts":4292416,"duration":"4292.416000","disposition":{"default":0,"dub":0,"original":0,"comment":0,"lyrics":0,"karaoke":0,"forced":0,"hearing_impaired":0,"visual_impaired":0,"clean_effects":0,"attached_pic":0,"timed_thumbnails":0,"non_diegetic":0,"captions":0,"descriptions":0,"metadata":0,"dependent":0,"still_image":0,"multilayer":0},"tags":{"language":"por","title":"European","BPS":"27","DURATION":"01:10:56.160000000","NUMBER_OF_FRAMES":"496","NUMBER_OF_BYTES":"14676","_STATISTICS_WRITING_APP":"mkvmerge v95.0 ('Goodbye Stranger') 64-bit","_STATISTICS_WRITING_DATE_UTC":"2025-11-04 17:55:10","_STATISTICS_TAGS":"BPS DURATION NUMBER_OF_FRAMES NUMBER_OF_BYTES"}},{"index":41,"codec_name":"subrip","codec_long_name":"SubRip subtitle","codec_type":"subtitle","codec_tag_string":"[0][0][0][0]","codec_tag":"0x0000","r_frame_rate":"0/0","avg_frame_rate":"0/0","time_base":"1/1000","start_pts":0,"start_time":"0.000000","duration_ts":4292416,"duration":"4292.416000","disposition":{"default":0,"dub":0,"original":0,"comment":0,"lyrics":0,"karaoke":0,"forced":0,"hearing_impaired":0,"visual_impaired":0,"clean_effects":0,"attached_pic":0,"timed_thumbnails":0,"non_diegetic":0,"captions":0,"descriptions":0,"metadata":0,"dependent":0,"still_image":0,"multilayer":0},"tags":{"language":"rum","BPS":"31","DURATION":"01:10:56.160000000","NUMBER_OF_FRAMES":"495","NUMBER_OF_BYTES":"16730","_STATISTICS_WRITING_APP":"mkvmerge v95.0 ('Goodbye Stranger') 64-bit","_STATISTICS_WRITING_DATE_UTC":"2025-11-04 17:55:10","_STATISTICS_TAGS":"BPS DURATION NUMBER_OF_FRAMES NUMBER_OF_BYTES"}},{"index":42,"codec_name":"subrip","codec_long_name":"SubRip subtitle","codec_type":"subtitle","codec_tag_string":"[0][0][0][0]","codec_tag":"0x0000","r_frame_rate":"0/0","avg_frame_rate":"0/0","time_base":"1/1000","start_pts":0,"start_time":"0.000000","duration_ts":4292416,"duration":"4292.416000","disposition":{"default":0,"dub":0,"original":0,"comment":0,"lyrics":0,"karaoke":0,"forced":0,"hearing_impaired":0,"visual_impaired":0,"clean_effects":0,"attached_pic":0,"timed_thumbnails":0,"non_diegetic":0,"captions":0,"descriptions":0,"metadata":0,"dependent":0,"still_image":0,"multilayer":0},"tags":{"language":"rus","BPS":"47","DURATION":"01:10:56.202000000","NUMBER_OF_FRAMES":"500","NUMBER_OF_BYTES":"25317","_STATISTICS_WRITING_APP":"mkvmerge v95.0 ('Goodbye Stranger') 64-bit","_STATISTICS_WRITING_DATE_UTC":"2025-11-04 17:55:10","_STATISTICS_TAGS":"BPS DURATION NUMBER_OF_FRAMES NUMBER_OF_BYTES"}},{"index":43,"codec_name":"subrip","codec_long_name":"SubRip subtitle","codec_type":"subtitle","codec_tag_string":"[0][0][0][0]","codec_tag":"0x0000","r_frame_rate":"0/0","avg_frame_rate":"0/0","time_base":"1/1000","start_pts":0,"start_time":"0.000000","duration_ts":4292416,"duration":"4292.416000","disposition":{"default":0,"dub":0,"original":0,"comment":0,"lyrics":0,"karaoke":0,"forced":0,"hearing_impaired":0,"visual_impaired":0,"clean_effects":0,"attached_pic":0,"timed_thumbnails":0,"non_diegetic":0,"captions":0,"descriptions":0,"metadata":0,"dependent":0,"still_image":0,"multilayer":0},"tags":{"language":"swe","BPS":"28","DURATION":"01:10:56.202000000","NUMBER_OF_FRAMES":"496","NUMBER_OF_BYTES":"15216","_STATISTICS_WRITING_APP":"mkvmerge v95.0 ('Goodbye Stranger') 64-bit","_STATISTICS_WRITING_DATE_UTC":"2025-11-04 17:55:10","_STATISTICS_TAGS":"BPS DURATION NUMBER_OF_FRAMES NUMBER_OF_BYTES"}},{"index":44,"codec_name":"subrip","codec_long_name":"SubRip subtitle","codec_type":"subtitle","codec_tag_string":"[0][0][0][0]","codec_tag":"0x0000","r_frame_rate":"0/0","avg_frame_rate":"0/0","time_base":"1/1000","start_pts":0,"start_time":"0.000000","duration_ts":4292416,"duration":"4292.416000","disposition":{"default":0,"dub":0,"original":0,"comment":0,"lyrics":0,"karaoke":0,"forced":0,"hearing_impaired":0,"visual_impaired":0,"clean_effects":0,"attached_pic":0,"timed_thumbnails":0,"non_diegetic":0,"captions":0,"descriptions":0,"metadata":0,"dependent":0,"still_image":0,"multilayer":0},"tags":{"language":"tam","BPS":"80","DURATION":"01:10:56.160000000","NUMBER_OF_FRAMES":"504","NUMBER_OF_BYTES":"42817","_STATISTICS_WRITING_APP":"mkvmerge v95.0 ('Goodbye Stranger') 64-bit","_STATISTICS_WRITING_DATE_UTC":"2025-11-04 17:55:10","_STATISTICS_TAGS":"BPS DURATION NUMBER_OF_FRAMES NUMBER_OF_BYTES"}},{"index":45,"codec_name":"subrip","codec_long_name":"SubRip subtitle","codec_type":"subtitle","codec_tag_string":"[0][0][0][0]","codec_tag":"0x0000","r_frame_rate":"0/0","avg_frame_rate":"0/0","time_base":"1/1000","start_pts":0,"start_time":"0.000000","duration_ts":4292416,"duration":"4292.416000","disposition":{"default":0,"dub":0,"original":0,"comment":0,"lyrics":0,"karaoke":0,"forced":0,"hearing_impaired":0,"visual_impaired":0,"clean_effects":0,"attached_pic":0,"timed_thumbnails":0,"non_diegetic":0,"captions":0,"descriptions":0,"metadata":0,"dependent":0,"still_image":0,"multilayer":0},"tags":{"language":"tel","BPS":"72","DURATION":"01:10:56.202000000","NUMBER_OF_FRAMES":"503","NUMBER_OF_BYTES":"38685","_STATISTICS_WRITING_APP":"mkvmerge v95.0 ('Goodbye Stranger') 64-bit","_STATISTICS_WRITING_DATE_UTC":"2025-11-04 17:55:10","_STATISTICS_TAGS":"BPS DURATION NUMBER_OF_FRAMES NUMBER_OF_BYTES"}},{"index":46,"codec_name":"subrip","codec_long_name":"SubRip subtitle","codec_type":"subtitle","codec_tag_string":"[0][0][0][0]","codec_tag":"0x0000","r_frame_rate":"0/0","avg_frame_rate":"0/0","time_base":"1/1000","start_pts":0,"start_time":"0.000000","duration_ts":4292416,"duration":"4292.416000","disposition":{"default":0,"dub":0,"original":0,"comment":0,"lyrics":0,"karaoke":0,"forced":0,"hearing_impaired":0,"visual_impaired":0,"clean_effects":0,"attached_pic":0,"timed_thumbnails":0,"non_diegetic":0,"captions":0,"descriptions":0,"metadata":0,"dependent":0,"still_image":0,"multilayer":0},"tags":{"language":"tha","BPS":"73","DURATION":"01:10:56.160000000","NUMBER_OF_FRAMES":"503","NUMBER_OF_BYTES":"39292","_STATISTICS_WRITING_APP":"mkvmerge v95.0 ('Goodbye Stranger') 64-bit","_STATISTICS_WRITING_DATE_UTC":"2025-11-04 17:55:10","_STATISTICS_TAGS":"BPS DURATION NUMBER_OF_FRAMES NUMBER_OF_BYTES"}},{"index":47,"codec_name":"subrip","codec_long_name":"SubRip subtitle","codec_type":"subtitle","codec_tag_string":"[0][0][0][0]","codec_tag":"0x0000","r_frame_rate":"0/0","avg_frame_rate":"0/0","time_base":"1/1000","start_pts":0,"start_time":"0.000000","duration_ts":4292416,"duration":"4292.416000","disposition":{"default":0,"dub":0,"original":0,"comment":0,"lyrics":0,"karaoke":0,"forced":0,"hearing_impaired":0,"visual_impaired":0,"clean_effects":0,"attached_pic":0,"timed_thumbnails":0,"non_diegetic":0,"captions":0,"descriptions":0,"metadata":0,"dependent":0,"still_image":0,"multilayer":0},"tags":{"language":"tur","BPS":"29","DURATION":"01:10:56.160000000","NUMBER_OF_FRAMES":"496","NUMBER_OF_BYTES":"15663","_STATISTICS_WRITING_APP":"mkvmerge v95.0 ('Goodbye Stranger') 64-bit","_STATISTICS_WRITING_DATE_UTC":"2025-11-04 17:55:10","_STATISTICS_TAGS":"BPS DURATION NUMBER_OF_FRAMES NUMBER_OF_BYTES"}},{"index":48,"codec_name":"subrip","codec_long_name":"SubRip subtitle","codec_type":"subtitle","codec_tag_string":"[0][0][0][0]","codec_tag":"0x0000","r_frame_rate":"0/0","avg_frame_rate":"0/0","time_base":"1/1000","start_pts":0,"start_time":"0.000000","duration_ts":4292416,"duration":"4292.416000","disposition":{"default":0,"dub":0,"original":0,"comment":0,"lyrics":0,"karaoke":0,"forced":0,"hearing_impaired":0,"visual_impaired":0,"clean_effects":0,"attached_pic":0,"timed_thumbnails":0,"non_diegetic":0,"captions":0,"descriptions":0,"metadata":0,"dependent":0,"still_image":0,"multilayer":0},"tags":{"language":"ukr","title":"Ukraine","BPS":"45","DURATION":"01:10:56.160000000","NUMBER_OF_FRAMES":"502","NUMBER_OF_BYTES":"24457","_STATISTICS_WRITING_APP":"mkvmerge v95.0 ('Goodbye Stranger') 64-bit","_STATISTICS_WRITING_DATE_UTC":"2025-11-04 17:55:10","_STATISTICS_TAGS":"BPS DURATION NUMBER_OF_FRAMES NUMBER_OF_BYTES"}},{"index":49,"codec_name":"subrip","codec_long_name":"SubRip subtitle","codec_type":"subtitle","codec_tag_string":"[0][0][0][0]","codec_tag":"0x0000","r_frame_rate":"0/0","avg_frame_rate":"0/0","time_base":"1/1000","start_pts":0,"start_time":"0.000000","duration_ts":4292416,"duration":"4292.416000","disposition":{"default":0,"dub":0,"original":0,"comment":0,"lyrics":0,"karaoke":0,"forced":0,"hearing_impaired":0,"visual_impaired":0,"clean_effects":0,"attached_pic":0,"timed_thumbnails":0,"non_diegetic":0,"captions":0,"descriptions":0,"metadata":0,"dependent":0,"still_image":0,"multilayer":0},"tags":{"language":"vie","title":"Vietnam","BPS":"37","DURATION":"01:10:56.160000000","NUMBER_OF_FRAMES":"498","NUMBER_OF_BYTES":"20040","_STATISTICS_WRITING_APP":"mkvmerge v95.0 ('Goodbye Stranger') 64-bit","_STATISTICS_WRITING_DATE_UTC":"2025-11-04 17:55:10","_STATISTICS_TAGS":"BPS DURATION NUMBER_OF_FRAMES NUMBER_OF_BYTES"}},{"index":50,"codec_name":"subrip","codec_long_name":"SubRip subtitle","codec_type":"subtitle","codec_tag_string":"[0][0][0][0]","codec_tag":"0x0000","r_frame_rate":"0/0","avg_frame_rate":"0/0","time_base":"1/1000","start_pts":0,"start_time":"0.000000","duration_ts":4292416,"duration":"4292.416000","disposition":{"default":0,"dub":0,"original":0,"comment":0,"lyrics":0,"karaoke":0,"forced":0,"hearing_impaired":0,"visual_impaired":0,"clean_effects":0,"attached_pic":0,"timed_thumbnails":0,"non_diegetic":0,"captions":0,"descriptions":0,"metadata":0,"dependent":0,"still_image":0,"multilayer":0},"tags":{"language":"chi","title":"Simplified","BPS":"27","DURATION":"01:10:56.160000000","NUMBER_OF_FRAMES":"503","NUMBER_OF_BYTES":"14633","_STATISTICS_WRITING_APP":"mkvmerge v95.0 ('Goodbye Stranger') 64-bit","_STATISTICS_WRITING_DATE_UTC":"2025-11-04 17:55:10","_STATISTICS_TAGS":"BPS DURATION NUMBER_OF_FRAMES NUMBER_OF_BYTES"}},{"index":51,"codec_name":"subrip","codec_long_name":"SubRip subtitle","codec_type":"subtitle","codec_tag_string":"[0][0][0][0]","codec_tag":"0x0000","r_frame_rate":"0/0","avg_frame_rate":"0/0","time_base":"1/1000","start_pts":0,"start_time":"0.000000","duration_ts":4292416,"duration":"4292.416000","disposition":{"default":0,"dub":0,"original":0,"comment":0,"lyrics":0,"karaoke":0,"forced":0,"hearing_impaired":0,"visual_impaired":0,"clean_effects":0,"attached_pic":0,"timed_thumbnails":0,"non_diegetic":0,"captions":0,"descriptions":0,"metadata":0,"dependent":0,"still_image":0,"multilayer":0},"tags":{"language":"chi","title":"Traditional","BPS":"26","DURATION":"01:10:56.160000000","NUMBER_OF_FRAMES":"502","NUMBER_OF_BYTES":"13836","_STATISTICS_WRITING_APP":"mkvmerge v95.0 ('Goodbye Stranger') 64-bit","_STATISTICS_WRITING_DATE_UTC":"2025-11-04 17:55:10","_STATISTICS_TAGS":"BPS DURATION NUMBER_OF_FRAMES NUMBER_OF_BYTES"}}],"format":{"filename":"/media/tv/Fallout/Season 1/Fallout.2024.S01E01.1080p.BDRip.DDP7.1.x265.-.Vialle.mkv","nb_streams":52,"nb_programs":0,"nb_stream_groups":0,"format_name":"matroska,webm","format_long_name":"Matroska / WebM","start_time":"0.000000","duration":"4292.416000","size":"4453026845","bit_rate":"8299338","probe_score":100,"tags":{"encoder":"libebml v1.4.5 + libmatroska v1.7.1","creation_time":"2025-11-04T17:55:10.000000Z"}}},"meta":{"SourceFile":"/media/tv/Fallout/Season 1/Fallout.2024.S01E01.1080p.BDRip.DDP7.1.x265.-.Vialle.mkv","errors":[],"tz":"UTC","tzSource":"defaultVideosToUTC","Duration":4292.416,"DefaultDuration":0.032,"ExifToolVersion":12.6,"FileName":"Fallout.2024.S01E01.1080p.BDRip.DDP7.1.x265.-.Vialle.mkv","Directory":"/media/tv/Fallout/Season 1","FileSize":"4.5 GB","FileModifyDate":{"_ctor":"ExifDateTime","year":2026,"month":1,"day":2,"hour":10,"minute":4,"second":2,"tzoffsetMinutes":0,"rawValue":"2026:01:02 10:04:02+00:00","zoneName":"UTC"},"FileAccessDate":{"_ctor":"ExifDateTime","year":2026,"month":1,"day":4,"hour":17,"minute":24,"second":1,"tzoffsetMinutes":0,"rawValue":"2026:01:04 17:24:01+00:00","zoneName":"UTC"},"FileInodeChangeDate":{"_ctor":"ExifDateTime","year":2026,"month":1,"day":2,"hour":21,"minute":20,"second":11,"tzoffsetMinutes":0,"rawValue":"2026:01:02 21:20:11+00:00","zoneName":"UTC"},"FilePermissions":"-rwxr-xr-x","FileType":"MKV","FileTypeExtension":"mkv","MIMEType":"video/x-matroska","EBMLVersion":1,"EBMLReadVersion":1,"DocType":"matroska","DocTypeVersion":4,"DocTypeReadVersion":2,"TimecodeScale":"1 ms","MuxingApp":"libebml v1.4.5 + libmatroska v1.7.1","WritingApp":"mkvmerge v95.0 ('Goodbye Stranger') 64-bit","DateTimeOriginal":{"_ctor":"ExifDateTime","year":2025,"month":11,"day":4,"hour":17,"minute":55,"second":10,"tzoffsetMinutes":0,"rawValue":"2025:11:04 17:55:10Z","zoneName":"UTC"},"VideoCodecID":"V_MPEGH/ISO/HEVC","VideoFrameRate":23.976,"ImageWidth":1920,"ImageHeight":800,"DisplayWidth":1920,"DisplayHeight":800,"AudioCodecID":"A_EAC3","AudioSampleRate":48000,"AudioChannels":8,"TrackNumber":52,"TrackUID":"b03a92c94d56a4af","TrackType":"Subtitle","TrackDefault":"No","TrackLanguage":"chi","CodecID":"S_TEXT/UTF8","TrackLanguageIETF":"zh-Hant","TrackName":"Traditional","ImageSize":"1920x800","Megapixels":1.5},"mediaInfo":{"@ref":"","track":[{"@type":"General","UniqueID":"188235932945652191210485268495721207144","VideoCount":"1","AudioCount":"1","TextCount":"50","Format":"Matroska","Format_Version":"4","FileSize":"4453026845","Duration":"4292.416","OverallBitRate":"8299339","FrameRate":"23.976","FrameCount":"102915","IsStreamable":"Yes","Encoded_Date":"2025-11-04 17:55:10 UTC","Encoded_Application":"mkvmerge v95.0 ('Goodbye Stranger') 64-bit","Encoded_Library":"libebml v1.4.5 + libmatroska v1.7.1"},{"@type":"Video","StreamOrder":"0","ID":"1","UniqueID":"14783905477453960106","Format":"HEVC","Format_Profile":"Main 10","Format_Level":"4","Format_Tier":"Main","CodecID":"V_MPEGH/ISO/HEVC","Duration":"4292.413000000","BitRate":"7227059","Width":"1920","Height":"800","Sampled_Width":"1920","Sampled_Height":"800","PixelAspectRatio":"1.000","DisplayAspectRatio":"2.400","FrameRate_Mode":"CFR","FrameRate":"23.976","FrameRate_Num":"24000","FrameRate_Den":"1001","FrameCount":"102915","ColorSpace":"YUV","ChromaSubsampling":"4:2:0","BitDepth":"10","Delay":"0.000","Delay_Source":"Container","StreamSize":"3877690639","Encoded_Library":"x265 - 4.1+191+33-61d0a57b3:[Windows][Clang 21.1.1][64 bit] 10bit","Encoded_Library_Name":"x265","Encoded_Library_Version":"4.1+191+33-61d0a57b3:[Windows][Clang 21.1.1][64 bit] 10bit","Encoded_Library_Settings":"cpuid=1111039 / frame-threads=2 / numa-pools=4 / wpp / no-pmode / no-pme / no-psnr / no-ssim / log-level=2 / input-csp=1 / input-res=1920x800 / interlace=0 / total-frames=102915 / level-idc=0 / high-tier=1 / uhd-bd=0 / ref=4 / no-allow-non-conformance / no-repeat-headers / annexb / no-aud / no-eob / no-eos / no-hrd / info / hash=0 / temporal-layers=0 / open-gop / min-keyint=23 / keyint=250 / gop-lookahead=0 / bframes=8 / b-adapt=2 / b-pyramid / bframe-bias=0 / rc-lookahead=80 / lookahead-slices=4 / scenecut=40 / no-hist-scenecut / radl=0 / no-splice / no-intra-refresh / ctu=64 / min-cu-size=8 / no-rect / no-amp / max-tu-size=32 / tu-inter-depth=1 / tu-intra-depth=1 / limit-tu=0 / rdoq-level=2 / dynamic-rd=0.00 / no-ssim-rd / signhide / no-tskip / nr-intra=0 / nr-inter=0 / no-constrained-intra / no-strong-intra-smoothing / max-merge=3 / limit-refs=3 / limit-modes / me=3 / subme=3 / merange=57 / temporal-mvp / no-frame-dup / no-hme / weightp / no-weightb / no-analyze-src-pics / deblock=0:0 / no-sao / no-sao-non-deblock / rd=4 / selective-sao=0 / no-early-skip / rskip / no-fast-intra / no-tskip-fast / no-cu-lossless / no-b-intra / no-splitrd-skip / rdpenalty=0 / psy-rd=2.00 / psy-rdoq=1.00 / no-rd-refine / no-lossless / cbqpoffs=0 / crqpoffs=0 / rc=abr / bitrate=7225 / qcomp=0.60 / qpstep=4 / stats-write=0 / stats-read=2 / cplxblur=20.0 / qblur=0.5 / ipratio=1.40 / pbratio=1.30 / aq-mode=5 / aq-strength=1.00 / aq-bias-strength=1.00 / cutree / zone-count=0 / no-strict-cbr / qg-size=32 / no-rc-grain / qpmax=69 / qpmin=0 / no-const-vbv / sar=0 / overscan=0 / videoformat=5 / range=0 / colorprim=2 / transfer=2 / colormatrix=2 / chromaloc=0 / display-window=0 / cll=0,0 / min-luma=0 / max-luma=1023 / log2-max-poc-lsb=8 / vui-timing-info / vui-hrd-info / slices=1 / no-opt-qp-pps / no-opt-ref-list-length-pps / no-multi-pass-opt-rps / scenecut-bias=0.05 / no-opt-cu-delta-qp / no-aq-motion / no-hdr10 / no-hdr10-opt / no-dhdr10-opt / no-idr-recovery-sei / analysis-reuse-level=0 / analysis-save-reuse-level=0 / analysis-load-reuse-level=0 / scale-factor=0 / refine-intra=0 / refine-inter=0 / refine-mv=1 / refine-ctu-distortion=0 / no-limit-sao / ctu-info=0 / no-lowpass-dct / refine-analysis-type=0 / copy-pic=1 / max-ausize-factor=1.0 / no-dynamic-refine / no-single-sei / no-hevc-aq / no-svt / no-field / qp-adaptation-range=1.00 / scenecut-aware-qp=0conformance-window-offsets / right=0 / bottom=0 / decoder-max-rate=0 / no-vbv-live-multi-pass / no-mcstf / no-alpha / num-views=1 / format=0scc=0 / no-sbrc / no-frame-rc","Default":"Yes","Forced":"No"},{"@type":"Audio","StreamOrder":"1","ID":"2","UniqueID":"13544653628347116870","Format":"E-AC-3","Format_Commercial_IfAny":"Dolby Digital Plus","Format_Settings_Mode":"Dolby Surround EX","Format_Settings_Endianness":"Big","Format_AdditionalFeatures":"Dep","CodecID":"A_EAC3","Duration":"4292.416000000","BitRate_Mode":"CBR","BitRate":"1024000","Channels":"8","ChannelPositions":"Front: L C R, Side: L R, Back: L R, LFE","ChannelLayout":"L R C LFE Ls Rs Lb Rb","SamplesPerFrame":"1536","SamplingRate":"48000","SamplingCount":"206035968","FrameRate":"31.250","FrameCount":"134138","Compression_Mode":"Lossy","Delay":"0.000","Delay_Source":"Container","Video_Delay":"0.000","StreamSize":"549429248","Language":"en","ServiceKind":"CM","Default":"Yes","Forced":"No","extra":{"bsid":"16","dialnorm":"-28","compr":"-0.28","acmod":"7 / 5","lfeon":"1 / 0","dialnorm_Average":"-28","dialnorm_Minimum":"-28","compr_Average":"0.25","compr_Minimum":"-2.50","compr_Maximum":"5.16","compr_Count":"2514"}},{"@type":"Text","@typeorder":"1","StreamOrder":"2","ID":"3","UniqueID":"1040323864482064246","Format":"UTF-8","CodecID":"S_TEXT/UTF8","Duration":"4202.048000000","BitRate":"40","FrameRate":"0.167","FrameCount":"703","ElementCount":"703","StreamSize":"21091","Language":"en-US","Default":"No","Forced":"No"},{"@type":"Text","@typeorder":"2","StreamOrder":"3","ID":"4","UniqueID":"14815024136644063481","Format":"UTF-8","CodecID":"S_TEXT/UTF8","Duration":"4241.466000000","BitRate":"50","FrameRate":"0.223","FrameCount":"947","ElementCount":"947","StreamSize":"26583","Title":"SDH","Language":"en-US","Default":"No","Forced":"No"},{"@type":"Text","@typeorder":"3","StreamOrder":"4","ID":"5","UniqueID":"16015655877005115545","Format":"PGS","MuxingMode":"zlib","CodecID":"S_HDMV/PGS","Duration":"4177.027000000","BitRate":"27180","FrameRate":"0.373","FrameCount":"1558","ElementCount":"1558","StreamSize":"14191611","Title":"SDH","Language":"en","Default":"No","Forced":"No"},{"@type":"Text","@typeorder":"4","StreamOrder":"5","ID":"6","UniqueID":"8861487121262661607","Format":"PGS","MuxingMode":"zlib","CodecID":"S_HDMV/PGS","Duration":"4264.698000000","BitRate":"15863","FrameRate":"0.237","FrameCount":"1012","ElementCount":"1012","StreamSize":"8456753","Language":"fr","Default":"No","Forced":"No"},{"@type":"Text","@typeorder":"5","StreamOrder":"6","ID":"7","UniqueID":"2016132518471430851","Format":"PGS","MuxingMode":"zlib","CodecID":"S_HDMV/PGS","Duration":"4264.698000000","BitRate":"17346","FrameRate":"0.221","FrameCount":"942","ElementCount":"942","StreamSize":"9247306","Language":"es","Default":"No","Forced":"No"},{"@type":"Text","@typeorder":"6","StreamOrder":"7","ID":"8","UniqueID":"15692242797850897308","Format":"PGS","MuxingMode":"zlib","CodecID":"S_HDMV/PGS","Duration":"4264.698000000","BitRate":"16060","FrameRate":"0.218","FrameCount":"930","ElementCount":"930","StreamSize":"8561727","Language":"nl","Default":"No","Forced":"No"},{"@type":"Text","@typeorder":"7","StreamOrder":"8","ID":"9","UniqueID":"15349300772657108724","Format":"PGS","MuxingMode":"zlib","CodecID":"S_HDMV/PGS","Duration":"4229.538000000","BitRate":"16130","FrameRate":"0.234","FrameCount":"990","ElementCount":"990","StreamSize":"8528303","Language":"da","Default":"No","Forced":"No"},{"@type":"Text","@typeorder":"8","StreamOrder":"9","ID":"10","UniqueID":"9259363441919638366","Format":"PGS","MuxingMode":"zlib","CodecID":"S_HDMV/PGS","Duration":"4264.698000000","BitRate":"16929","FrameRate":"0.229","FrameCount":"978","ElementCount":"978","StreamSize":"9024662","Language":"fi","Default":"No","Forced":"No"},{"@type":"Text","@typeorder":"9","StreamOrder":"10","ID":"11","UniqueID":"15414278453506493938","Format":"PGS","MuxingMode":"zlib","CodecID":"S_HDMV/PGS","Duration":"4264.698000000","BitRate":"15800","FrameRate":"0.232","FrameCount":"988","ElementCount":"988","StreamSize":"8423212","Language":"no","Default":"No","Forced":"No"},{"@type":"Text","@typeorder":"10","StreamOrder":"11","ID":"12","UniqueID":"17439997444017261693","Format":"PGS","MuxingMode":"zlib","CodecID":"S_HDMV/PGS","Duration":"4264.698000000","BitRate":"16696","FrameRate":"0.232","FrameCount":"990","ElementCount":"990","StreamSize":"8900591","Language":"sv","Default":"No","Forced":"No"},{"@type":"Text","@typeorder":"11","StreamOrder":"12","ID":"13","UniqueID":"18121587721267564185","Format":"UTF-8","CodecID":"S_TEXT/UTF8","Duration":"4256.160000000","BitRate":"48","FrameRate":"0.118","FrameCount":"501","ElementCount":"501","StreamSize":"25597","Language":"ar-001","Default":"No","Forced":"No"},{"@type":"Text","@typeorder":"12","StreamOrder":"13","ID":"14","UniqueID":"8402948134430471309","Format":"UTF-8","CodecID":"S_TEXT/UTF8","Duration":"4256.160000000","BitRate":"26","FrameRate":"0.116","FrameCount":"495","ElementCount":"495","StreamSize":"13992","Title":"European","Language":"ca-ES","Default":"No","Forced":"No"},{"@type":"Text","@typeorder":"13","StreamOrder":"14","ID":"15","UniqueID":"12146770106424273892","Format":"UTF-8","CodecID":"S_TEXT/UTF8","Duration":"4256.160000000","BitRate":"29","FrameRate":"0.116","FrameCount":"494","ElementCount":"494","StreamSize":"15748","Language":"cs-CZ","Default":"No","Forced":"No"},{"@type":"Text","@typeorder":"14","StreamOrder":"15","ID":"16","UniqueID":"3321513459541213621","Format":"UTF-8","CodecID":"S_TEXT/UTF8","Duration":"4256.160000000","BitRate":"26","FrameRate":"0.117","FrameCount":"497","ElementCount":"497","StreamSize":"14308","Language":"da-DK","Default":"No","Forced":"No"},{"@type":"Text","@typeorder":"15","StreamOrder":"16","ID":"17","UniqueID":"7183758532726039170","Format":"UTF-8","CodecID":"S_TEXT/UTF8","Duration":"4256.160000000","BitRate":"28","FrameRate":"0.117","FrameCount":"496","ElementCount":"496","StreamSize":"15081","Language":"de-DE","Default":"No","Forced":"No"},{"@type":"Text","@typeorder":"16","StreamOrder":"17","ID":"18","UniqueID":"13038734455769061862","Format":"UTF-8","CodecID":"S_TEXT/UTF8","Duration":"4256.160000000","BitRate":"52","FrameRate":"0.117","FrameCount":"498","ElementCount":"498","StreamSize":"27983","Language":"el-GR","Default":"No","Forced":"No"},{"@type":"Text","@typeorder":"17","StreamOrder":"18","ID":"19","UniqueID":"1801272885381857111","Format":"UTF-8","CodecID":"S_TEXT/UTF8","Duration":"4256.202000000","BitRate":"28","FrameRate":"0.117","FrameCount":"496","ElementCount":"496","StreamSize":"15125","Title":"Latin American","Language":"es-419","Default":"No","Forced":"No"},{"@type":"Text","@typeorder":"18","StreamOrder":"19","ID":"20","UniqueID":"808056224979879038","Format":"UTF-8","CodecID":"S_TEXT/UTF8","Duration":"4256.160000000","BitRate":"29","FrameRate":"0.111","FrameCount":"472","ElementCount":"472","StreamSize":"15647","Title":"European","Language":"es-ES","Default":"No","Forced":"No"},{"@type":"Text","@typeorder":"19","StreamOrder":"20","ID":"21","UniqueID":"11122621354697846992","Format":"UTF-8","CodecID":"S_TEXT/UTF8","Duration":"4256.160000000","BitRate":"25","FrameRate":"0.117","FrameCount":"496","ElementCount":"496","StreamSize":"13831","Title":"European","Language":"eu-ES","Default":"No","Forced":"No"},{"@type":"Text","@typeorder":"20","StreamOrder":"21","ID":"22","UniqueID":"489565026814791610","Format":"UTF-8","CodecID":"S_TEXT/UTF8","Duration":"4256.160000000","BitRate":"27","FrameRate":"0.116","FrameCount":"493","ElementCount":"493","StreamSize":"14800","Language":"fi-FI","Default":"No","Forced":"No"},{"@type":"Text","@typeorder":"21","StreamOrder":"22","ID":"23","UniqueID":"3141482877176351779","Format":"UTF-8","CodecID":"S_TEXT/UTF8","Duration":"4221.070000000","BitRate":"31","FrameRate":"0.116","FrameCount":"489","ElementCount":"489","StreamSize":"16393","Language":"fil-PH","Default":"No","Forced":"No"},{"@type":"Text","@typeorder":"22","StreamOrder":"23","ID":"24","UniqueID":"4357786906895291869","Format":"UTF-8","CodecID":"S_TEXT/UTF8","Duration":"4256.160000000","BitRate":"30","FrameRate":"0.116","FrameCount":"493","ElementCount":"493","StreamSize":"16313","Title":"Canadian","Language":"fr-CA","Default":"No","Forced":"No"},{"@type":"Text","@typeorder":"23","StreamOrder":"24","ID":"25","UniqueID":"5961185829160588387","Format":"UTF-8","CodecID":"S_TEXT/UTF8","Duration":"4256.160000000","BitRate":"26","FrameRate":"0.119","FrameCount":"508","ElementCount":"508","StreamSize":"14307","Title":"European","Language":"fr-FR","Default":"No","Forced":"No"},{"@type":"Text","@typeorder":"24","StreamOrder":"25","ID":"26","UniqueID":"18422082040283399153","Format":"UTF-8","CodecID":"S_TEXT/UTF8","Duration":"4256.160000000","BitRate":"26","FrameRate":"0.117","FrameCount":"496","ElementCount":"496","StreamSize":"14216","Title":"European","Language":"gl-ES","Default":"No","Forced":"No"},{"@type":"Text","@typeorder":"25","StreamOrder":"26","ID":"27","UniqueID":"3703360521501056510","Format":"UTF-8","CodecID":"S_TEXT/UTF8","Duration":"4256.160000000","BitRate":"44","FrameRate":"0.118","FrameCount":"503","ElementCount":"503","StreamSize":"23698","Language":"he-IL","Default":"No","Forced":"No"},{"@type":"Text","@typeorder":"26","StreamOrder":"27","ID":"28","UniqueID":"11192117355740355254","Format":"UTF-8","CodecID":"S_TEXT/UTF8","Duration":"4256.160000000","BitRate":"63","FrameRate":"0.118","FrameCount":"503","ElementCount":"503","StreamSize":"33738","Language":"hi-IN","Default":"No","Forced":"No"},{"@type":"Text","@typeorder":"27","StreamOrder":"28","ID":"29","UniqueID":"1534767847225232719","Format":"UTF-8","CodecID":"S_TEXT/UTF8","Duration":"4256.160000000","BitRate":"29","FrameRate":"0.116","FrameCount":"494","ElementCount":"494","StreamSize":"15622","Language":"hu-HU","Default":"No","Forced":"No"},{"@type":"Text","@typeorder":"28","StreamOrder":"29","ID":"30","UniqueID":"16966999056363395358","Format":"UTF-8","CodecID":"S_TEXT/UTF8","Duration":"4256.160000000","BitRate":"27","FrameRate":"0.116","FrameCount":"493","ElementCount":"493","StreamSize":"14557","Language":"id-ID","Default":"No","Forced":"No"},{"@type":"Text","@typeorder":"29","StreamOrder":"30","ID":"31","UniqueID":"3375620115932515956","Format":"UTF-8","CodecID":"S_TEXT/UTF8","Duration":"4256.160000000","BitRate":"28","FrameRate":"0.114","FrameCount":"485","ElementCount":"485","StreamSize":"15179","Language":"it-IT","Default":"No","Forced":"No"},{"@type":"Text","@typeorder":"30","StreamOrder":"31","ID":"32","UniqueID":"12515777748008747811","Format":"UTF-8","CodecID":"S_TEXT/UTF8","Duration":"4256.160000000","BitRate":"26","FrameRate":"0.114","FrameCount":"487","ElementCount":"487","StreamSize":"14289","Language":"ja-JP","Default":"No","Forced":"No"},{"@type":"Text","@typeorder":"31","StreamOrder":"32","ID":"33","UniqueID":"11465660180480192393","Format":"UTF-8","CodecID":"S_TEXT/UTF8","Duration":"4256.160000000","BitRate":"71","FrameRate":"0.118","FrameCount":"503","ElementCount":"503","StreamSize":"37911","Language":"kn-IN","Default":"No","Forced":"No"},{"@type":"Text","@typeorder":"32","StreamOrder":"33","ID":"34","UniqueID":"683136377759710755","Format":"UTF-8","CodecID":"S_TEXT/UTF8","Duration":"4256.160000000","BitRate":"30","FrameRate":"0.118","FrameCount":"502","ElementCount":"502","StreamSize":"16071","Language":"ko-KR","Default":"No","Forced":"No"},{"@type":"Text","@typeorder":"33","StreamOrder":"34","ID":"35","UniqueID":"965542342164411735","Format":"UTF-8","CodecID":"S_TEXT/UTF8","Duration":"4256.160000000","BitRate":"85","FrameRate":"0.117","FrameCount":"498","ElementCount":"498","StreamSize":"45498","Language":"ml-IN","Default":"No","Forced":"No"},{"@type":"Text","@typeorder":"34","StreamOrder":"35","ID":"36","UniqueID":"3438525469579153535","Format":"UTF-8","CodecID":"S_TEXT/UTF8","Duration":"4256.160000000","BitRate":"29","FrameRate":"0.116","FrameCount":"493","ElementCount":"493","StreamSize":"15805","Language":"ms-MY","Default":"No","Forced":"No"},{"@type":"Text","@typeorder":"35","StreamOrder":"36","ID":"37","UniqueID":"15140289012048852377","Format":"UTF-8","CodecID":"S_TEXT/UTF8","Duration":"4256.160000000","BitRate":"26","FrameRate":"0.116","FrameCount":"495","ElementCount":"495","StreamSize":"14151","Language":"nb-NO","Default":"No","Forced":"No"},{"@type":"Text","@typeorder":"36","StreamOrder":"37","ID":"38","UniqueID":"6887480560880233555","Format":"UTF-8","CodecID":"S_TEXT/UTF8","Duration":"4256.160000000","BitRate":"25","FrameRate":"0.113","FrameCount":"480","ElementCount":"480","StreamSize":"13606","Language":"nl-NL","Default":"No","Forced":"No"},{"@type":"Text","@typeorder":"37","StreamOrder":"38","ID":"39","UniqueID":"5057206143123972210","Format":"UTF-8","CodecID":"S_TEXT/UTF8","Duration":"4256.160000000","BitRate":"24","FrameRate":"0.116","FrameCount":"492","ElementCount":"492","StreamSize":"12975","Language":"pl-PL","Default":"No","Forced":"No"},{"@type":"Text","@typeorder":"38","StreamOrder":"39","ID":"40","UniqueID":"12413471806231975350","Format":"UTF-8","CodecID":"S_TEXT/UTF8","Duration":"4256.160000000","BitRate":"27","FrameRate":"0.117","FrameCount":"496","ElementCount":"496","StreamSize":"14532","Title":"Brazilian","Language":"pt-BR","Default":"No","Forced":"No"},{"@type":"Text","@typeorder":"39","StreamOrder":"40","ID":"41","UniqueID":"11395403794802873254","Format":"UTF-8","CodecID":"S_TEXT/UTF8","Duration":"4256.160000000","BitRate":"27","FrameRate":"0.117","FrameCount":"496","ElementCount":"496","StreamSize":"14676","Title":"European","Language":"pt-PT","Default":"No","Forced":"No"},{"@type":"Text","@typeorder":"40","StreamOrder":"41","ID":"42","UniqueID":"10094786261334848832","Format":"UTF-8","CodecID":"S_TEXT/UTF8","Duration":"4256.160000000","BitRate":"31","FrameRate":"0.116","FrameCount":"495","ElementCount":"495","StreamSize":"16730","Language":"ro-RO","Default":"No","Forced":"No"},{"@type":"Text","@typeorder":"41","StreamOrder":"42","ID":"43","UniqueID":"13925517007165425568","Format":"UTF-8","CodecID":"S_TEXT/UTF8","Duration":"4256.202000000","BitRate":"47","FrameRate":"0.117","FrameCount":"500","ElementCount":"500","StreamSize":"25317","Language":"ru-RU","Default":"No","Forced":"No"},{"@type":"Text","@typeorder":"42","StreamOrder":"43","ID":"44","UniqueID":"6438755121631662990","Format":"UTF-8","CodecID":"S_TEXT/UTF8","Duration":"4256.202000000","BitRate":"28","FrameRate":"0.117","FrameCount":"496","ElementCount":"496","StreamSize":"15216","Language":"sv-SE","Default":"No","Forced":"No"},{"@type":"Text","@typeorder":"43","StreamOrder":"44","ID":"45","UniqueID":"963485315443159587","Format":"UTF-8","CodecID":"S_TEXT/UTF8","Duration":"4256.160000000","BitRate":"80","FrameRate":"0.118","FrameCount":"504","ElementCount":"504","StreamSize":"42817","Language":"ta-IN","Default":"No","Forced":"No"},{"@type":"Text","@typeorder":"44","StreamOrder":"45","ID":"46","UniqueID":"1444533387852871235","Format":"UTF-8","CodecID":"S_TEXT/UTF8","Duration":"4256.202000000","BitRate":"72","FrameRate":"0.118","FrameCount":"503","ElementCount":"503","StreamSize":"38685","Language":"te-IN","Default":"No","Forced":"No"},{"@type":"Text","@typeorder":"45","StreamOrder":"46","ID":"47","UniqueID":"17847981542149811677","Format":"UTF-8","CodecID":"S_TEXT/UTF8","Duration":"4256.160000000","BitRate":"73","FrameRate":"0.118","FrameCount":"503","ElementCount":"503","StreamSize":"39292","Language":"th-TH","Default":"No","Forced":"No"},{"@type":"Text","@typeorder":"46","StreamOrder":"47","ID":"48","UniqueID":"8434570186320376281","Format":"UTF-8","CodecID":"S_TEXT/UTF8","Duration":"4256.160000000","BitRate":"29","FrameRate":"0.117","FrameCount":"496","ElementCount":"496","StreamSize":"15663","Language":"tr-TR","Default":"No","Forced":"No"},{"@type":"Text","@typeorder":"47","StreamOrder":"48","ID":"49","UniqueID":"6379579448809975639","Format":"UTF-8","CodecID":"S_TEXT/UTF8","Duration":"4256.160000000","BitRate":"45","FrameRate":"0.118","FrameCount":"502","ElementCount":"502","StreamSize":"24457","Title":"Ukraine","Language":"uk-UA","Default":"No","Forced":"No"},{"@type":"Text","@typeorder":"48","StreamOrder":"49","ID":"50","UniqueID":"8752949902091860542","Format":"UTF-8","CodecID":"S_TEXT/UTF8","Duration":"4256.160000000","BitRate":"37","FrameRate":"0.117","FrameCount":"498","ElementCount":"498","StreamSize":"20040","Title":"Vietnam","Language":"vi-VN","Default":"No","Forced":"No"},{"@type":"Text","@typeorder":"49","StreamOrder":"50","ID":"51","UniqueID":"14063957463653431943","Format":"UTF-8","CodecID":"S_TEXT/UTF8","Duration":"4256.160000000","BitRate":"27","FrameRate":"0.118","FrameCount":"503","ElementCount":"503","StreamSize":"14633","Title":"Simplified","Language":"zh-Hans","Default":"No","Forced":"No"},{"@type":"Text","@typeorder":"50","StreamOrder":"51","ID":"52","UniqueID":"12698623492608140463","Format":"UTF-8","CodecID":"S_TEXT/UTF8","Duration":"4256.160000000","BitRate":"26","FrameRate":"0.118","FrameCount":"502","ElementCount":"502","StreamSize":"13836","Title":"Traditional","Language":"zh-Hant","Default":"No","Forced":"No"}]},"hasClosedCaptions":false,"bumped":false,"HealthCheck":"","TranscodeDecisionMaker":"","holdUntil":0,"fileMedium":"video","video_codec_name":"hevc","audio_codec_name":"eac3","video_resolution":"1080p","lastHealthCheckDate":0,"lastTranscodeDate":0,"history":"","oldSize":4.147204426117241,"newSize":0,"newVsOldRatio":0,"videoStreamIndex":0,"duration":4292}}
2026-01-04T11:26:26.878Z b_HQy1FDG9-:Node[MyInternalNode]:Worker[fair-flies]:Source file to work on determined:"/media/tv/Fallout/Season 1/Fallout.2024.S01E01.1080p.BDRip.DDP7.1.x265.-.Vialle.mkv"
2026-01-04T11:26:26.879Z b_HQy1FDG9-:Node[MyInternalNode]:Worker[fair-flies]:[Step W02] [C1] Running pre-process file
2026-01-04T11:26:26.879Z b_HQy1FDG9-:Node[MyInternalNode]:Worker[fair-flies]:Checking files can be accessed
2026-01-04T11:26:26.879Z b_HQy1FDG9-:Node[MyInternalNode]:Worker[fair-flies]:mapped node, file is original, no need to download
2026-01-04T11:26:26.880Z b_HQy1FDG9-:Node[MyInternalNode]:Worker[fair-flies]:Relevant paths can be accessed
2026-01-04T11:26:26.880Z b_HQy1FDG9-:Node[MyInternalNode]:Worker[fair-flies]:Source file: "/media/tv/Fallout/Season 1/Fallout.2024.S01E01.1080p.BDRip.DDP7.1.x265.-.Vialle.mkv"
2026-01-04T11:26:26.881Z b_HQy1FDG9-:Node[MyInternalNode]:Worker[fair-flies]:Cache folder: "/tmp/tdarr-workDir2-b_HQy1FDG9-"
2026-01-04T11:26:26.881Z b_HQy1FDG9-:Node[MyInternalNode]:Worker[fair-flies]:[Step W03] [C1] Analysing file - running plugins
2026-01-04T11:26:26.881Z b_HQy1FDG9-:Node[MyInternalNode]:Worker[fair-flies]:transcode task, scanning for extra file details before transcode
2026-01-04T11:26:26.882Z b_HQy1FDG9-:Node[MyInternalNode]:Worker[fair-flies]:Node scanning file
2026-01-04T11:26:27.883Z b_HQy1FDG9-:Node[MyInternalNode]:Worker[fair-flies]:Scan complete
2026-01-04T11:26:27.883Z b_HQy1FDG9-:Node[MyInternalNode]:Worker[fair-flies]:Scan complete
2026-01-04T11:26:27.884Z b_HQy1FDG9-:Node[MyInternalNode]:Worker[fair-flies]:Updating Node relay: Processing
2026-01-04T11:26:27.884Z b_HQy1FDG9-:Node[MyInternalNode]:Worker[fair-flies]:[1/2] Checking file frame count
2026-01-04T11:26:27.884Z b_HQy1FDG9-:Node[MyInternalNode]:Worker[fair-flies]:[2/2] Frame count 0
2026-01-04T11:26:27.884Z b_HQy1FDG9-:Node[MyInternalNode]:Worker[fair-flies]:Transcode task, determining transcode settings
2026-01-04T11:26:27.885Z b_HQy1FDG9-:Node[MyInternalNode]:Worker[fair-flies]:Plugin stack selected
2026-01-04T11:26:27.885Z b_HQy1FDG9-:Node[MyInternalNode]:Worker[fair-flies]:Plugin: plugin1:  Tdarr_Plugin_MC93_MigzImageRemoval
2026-01-04T11:26:27.885Z b_HQy1FDG9-:Node[MyInternalNode]:Worker[fair-flies]:[1/5] Reading plugin
2026-01-04T11:26:27.886Z b_HQy1FDG9-:Node[MyInternalNode]:Worker[fair-flies]:[2/5] Plugin read finished
2026-01-04T11:26:27.886Z b_HQy1FDG9-:Node[MyInternalNode]:Worker[fair-flies]:[3/5] Installing dependencies
2026-01-04T11:26:27.886Z b_HQy1FDG9-:Node[MyInternalNode]:Worker[fair-flies]:[4/5] Running plugin
2026-01-04T11:26:27.886Z b_HQy1FDG9-:Node[MyInternalNode]:Worker[fair-flies]:{"pluginInputs":{}}
2026-01-04T11:26:27.887Z b_HQy1FDG9-:Node[MyInternalNode]:Worker[fair-flies]:[5/5] Running plugin finished
2026-01-04T11:26:27.887Z b_HQy1FDG9-:Node[MyInternalNode]:Worker[fair-flies]:Plugin: plugin2:  Tdarr_Plugin_lmg1_Reorder_Streams
2026-01-04T11:26:27.887Z b_HQy1FDG9-:Node[MyInternalNode]:Worker[fair-flies]:[1/5] Reading plugin
2026-01-04T11:26:27.887Z b_HQy1FDG9-:Node[MyInternalNode]:Worker[fair-flies]:[2/5] Plugin read finished
2026-01-04T11:26:27.888Z b_HQy1FDG9-:Node[MyInternalNode]:Worker[fair-flies]:[3/5] Installing dependencies
2026-01-04T11:26:27.888Z b_HQy1FDG9-:Node[MyInternalNode]:Worker[fair-flies]:[4/5] Running plugin
2026-01-04T11:26:27.888Z b_HQy1FDG9-:Node[MyInternalNode]:Worker[fair-flies]:{"pluginInputs":{}}
2026-01-04T11:26:27.888Z b_HQy1FDG9-:Node[MyInternalNode]:Worker[fair-flies]:[5/5] Running plugin finished
2026-01-04T11:26:27.888Z b_HQy1FDG9-:Node[MyInternalNode]:Worker[fair-flies]:Plugin: plugin4:  Tdarr_Plugin_MC93_Migz1FFMPEG
2026-01-04T11:26:27.889Z b_HQy1FDG9-:Node[MyInternalNode]:Worker[fair-flies]:[1/5] Reading plugin
2026-01-04T11:26:27.889Z b_HQy1FDG9-:Node[MyInternalNode]:Worker[fair-flies]:[2/5] Plugin read finished
2026-01-04T11:26:27.889Z b_HQy1FDG9-:Node[MyInternalNode]:Worker[fair-flies]:[3/5] Installing dependencies
2026-01-04T11:26:27.889Z b_HQy1FDG9-:Node[MyInternalNode]:Worker[fair-flies]:[4/5] Running plugin
2026-01-04T11:26:27.890Z b_HQy1FDG9-:Node[MyInternalNode]:Worker[fair-flies]:{"pluginInputs":{"container":"mkv","bitrate_cutoff":"","enable_10bit":false,"enable_bframes":false,"force_conform":false}}
2026-01-04T11:26:27.890Z b_HQy1FDG9-:Node[MyInternalNode]:Worker[fair-flies]:[5/5] Running plugin finished
2026-01-04T11:26:27.890Z b_HQy1FDG9-:Node[MyInternalNode]:Worker[fair-flies]:Plugin: plugin5:  Tdarr_Plugin_a9he_New_file_size_check
2026-01-04T11:26:27.890Z b_HQy1FDG9-:Node[MyInternalNode]:Worker[fair-flies]:[1/5] Reading plugin
2026-01-04T11:26:27.891Z b_HQy1FDG9-:Node[MyInternalNode]:Worker[fair-flies]:[2/5] Plugin read finished
2026-01-04T11:26:27.891Z b_HQy1FDG9-:Node[MyInternalNode]:Worker[fair-flies]:[3/5] Installing dependencies
2026-01-04T11:26:27.891Z b_HQy1FDG9-:Node[MyInternalNode]:Worker[fair-flies]:[4/5] Running plugin
2026-01-04T11:26:27.891Z b_HQy1FDG9-:Node[MyInternalNode]:Worker[fair-flies]:{"pluginInputs":{"upperBound":110,"lowerBound":40}}
2026-01-04T11:26:27.892Z b_HQy1FDG9-:Node[MyInternalNode]:Worker[fair-flies]:[5/5] Running plugin finished
2026-01-04T11:26:27.892Z b_HQy1FDG9-:Node[MyInternalNode]:Worker[fair-flies]:Worker config: {
2026-01-04T11:26:27.892Z   "processFile": false,
2026-01-04T11:26:27.892Z   "preset": "",
2026-01-04T11:26:27.892Z   "handBrakeMode": false,
2026-01-04T11:26:27.892Z   "FFmpegMode": true,
2026-01-04T11:26:27.892Z   "reQueueAfter": true,
2026-01-04T11:26:27.892Z   "infoLog": "New file has size 4246.737 MB which is 100% of original file size:  4246.737 MB",
2026-01-04T11:26:27.892Z   "ffmpegMode": true,
2026-01-04T11:26:27.892Z   "cliToUse": "ffmpeg"
2026-01-04T11:26:27.892Z }
2026-01-04T11:26:27.892Z b_HQy1FDG9-:Node[MyInternalNode]:Worker[fair-flies]:Worker log: 
2026-01-04T11:26:27.892Z Pre-processing - Tdarr_Plugin_MC93_MigzImageRemoval
2026-01-04T11:26:27.892Z File doesn't contain any unwanted image format streams.
2026-01-04T11:26:27.892Z 
2026-01-04T11:26:27.892Z Pre-processing - Tdarr_Plugin_lmg1_Reorder_Streams
2026-01-04T11:26:27.892Z File has video in first stream
2026-01-04T11:26:27.892Z  File meets conditions!
2026-01-04T11:26:27.892Z 
2026-01-04T11:26:27.892Z Pre-processing - Tdarr_Plugin_MC93_Migz1FFMPEG
2026-01-04T11:26:27.892Z File is already hevc or vp9 & in mkv. 
2026-01-04T11:26:27.892Z 
2026-01-04T11:26:27.892Z Pre-processing - Tdarr_Plugin_a9he_New_file_size_check
2026-01-04T11:26:27.892Z New file has size 4246.737 MB which is 100% of original file size:  4246.737 MB
2026-01-04T11:26:27.892Z b_HQy1FDG9-:Node[MyInternalNode]:Worker[fair-flies]:[Step W03.1] [C1] Won't process: notRequired
2026-01-04T11:26:27.892Z b_HQy1FDG9-:Node[MyInternalNode]:Worker[fair-flies]:[Step W10] Worker processing end
2026-01-04T11:26:27.893Z b_HQy1FDG9-:Getting enabled plugins
2026-01-04T11:26:27.893Z b_HQy1FDG9-:Sorting plugins by priority
2026-01-04T11:26:27.893Z b_HQy1FDG9-:Plugins selected: 4, checking which ones are Post-processing
2026-01-04T11:26:27.893Z b_HQy1FDG9-:Plugin 1: path="/app/server/Tdarr/Plugins/Community/Tdarr_Plugin_MC93_MigzImageRemoval.js"
2026-01-04T11:26:27.894Z b_HQy1FDG9-:Plugin 1: importing plugin
2026-01-04T11:26:27.894Z b_HQy1FDG9-:Plugin 2: path="/app/server/Tdarr/Plugins/Community/Tdarr_Plugin_lmg1_Reorder_Streams.js"
2026-01-04T11:26:27.894Z b_HQy1FDG9-:Plugin 2: importing plugin
2026-01-04T11:26:27.894Z b_HQy1FDG9-:Plugin 3: path="/app/server/Tdarr/Plugins/Community/Tdarr_Plugin_MC93_Migz1FFMPEG.js"
2026-01-04T11:26:27.894Z b_HQy1FDG9-:Plugin 3: importing plugin
2026-01-04T11:26:27.895Z b_HQy1FDG9-:Plugin 4: path="/app/server/Tdarr/Plugins/Community/Tdarr_Plugin_a9he_New_file_size_check.js"
2026-01-04T11:26:27.895Z b_HQy1FDG9-:Plugin 4: importing plugin
2026-01-04T11:26:27.895Z b_HQy1FDG9-:
2026-01-04T11:26:27.895Z b_HQy1FDG9-:Node[MyInternalNode]:Worker[fair-flies]:Successfully updated server with verdict: wontProcess
